<?xml version="1.0" encoding="utf-8" standalone="no"?>
<!DOCTYPE svg PUBLIC "-//W3C//DTD SVG 1.1//EN"
  "http://www.w3.org/Graphics/SVG/1.1/DTD/svg11.dtd">
<svg xmlns:xlink="http://www.w3.org/1999/xlink" width="1008pt" height="432pt" viewBox="0 0 1008 432" xmlns="http://www.w3.org/2000/svg" version="1.1">
 <metadata>
  <rdf:RDF xmlns:dc="http://purl.org/dc/elements/1.1/" xmlns:cc="http://creativecommons.org/ns#" xmlns:rdf="http://www.w3.org/1999/02/22-rdf-syntax-ns#">
   <cc:Work>
    <dc:type rdf:resource="http://purl.org/dc/dcmitype/StillImage"/>
    <dc:date>2025-09-06T15:24:59.194299</dc:date>
    <dc:format>image/svg+xml</dc:format>
    <dc:creator>
     <cc:Agent>
      <dc:title>Matplotlib v3.9.2, https://matplotlib.org/</dc:title>
     </cc:Agent>
    </dc:creator>
   </cc:Work>
  </rdf:RDF>
 </metadata>
 <defs>
  <style type="text/css">*{stroke-linejoin: round; stroke-linecap: butt}</style>
 </defs>
 <g id="figure_1">
  <g id="patch_1">
   <path d="M 0 432 
L 1008 432 
L 1008 0 
L 0 0 
z
" style="fill: #ffffff"/>
  </g>
  <g id="axes_1">
   <g id="patch_2">
    <path d="M 75.00125 361.672467 
L 997.2 361.672467 
L 997.2 17.64 
L 75.00125 17.64 
z
" style="fill: #ffffff"/>
   </g>
   <g id="patch_3">
    <path d="M 116.919375 1049.737402 
L 134.028814 1049.737402 
L 134.028814 117.016236 
L 116.919375 117.016236 
z
" clip-path="url(#pee1724a627)" style="fill: #6c8ebf"/>
   </g>
   <g id="patch_4">
    <path d="M 202.466569 1049.737402 
L 219.576008 1049.737402 
L 219.576008 150.436532 
L 202.466569 150.436532 
z
" clip-path="url(#pee1724a627)" style="fill: #6c8ebf"/>
   </g>
   <g id="patch_5">
    <path d="M 288.013763 1049.737402 
L 305.123202 1049.737402 
L 305.123202 289.818829 
L 288.013763 289.818829 
z
" clip-path="url(#pee1724a627)" style="fill: #6c8ebf"/>
   </g>
   <g id="patch_6">
    <path d="M 373.560957 1049.737402 
L 390.670395 1049.737402 
L 390.670395 116.721351 
L 373.560957 116.721351 
z
" clip-path="url(#pee1724a627)" style="fill: #6c8ebf"/>
   </g>
   <g id="patch_7">
    <path d="M 459.108151 1049.737402 
L 476.217589 1049.737402 
L 476.217589 129.696289 
L 459.108151 129.696289 
z
" clip-path="url(#pee1724a627)" style="fill: #6c8ebf"/>
   </g>
   <g id="patch_8">
    <path d="M 544.655344 1049.737402 
L 561.764783 1049.737402 
L 561.764783 147.782568 
L 544.655344 147.782568 
z
" clip-path="url(#pee1724a627)" style="fill: #6c8ebf"/>
   </g>
   <g id="patch_9">
    <path d="M 630.202538 1049.737402 
L 647.311977 1049.737402 
L 647.311977 144.145653 
L 630.202538 144.145653 
z
" clip-path="url(#pee1724a627)" style="fill: #6c8ebf"/>
   </g>
   <g id="patch_10">
    <path d="M 715.749732 1049.737402 
L 732.859171 1049.737402 
L 732.859171 281.16887 
L 715.749732 281.16887 
z
" clip-path="url(#pee1724a627)" style="fill: #6c8ebf"/>
   </g>
   <g id="patch_11">
    <path d="M 801.296926 1049.737402 
L 818.406365 1049.737402 
L 818.406365 191.032364 
L 801.296926 191.032364 
z
" clip-path="url(#pee1724a627)" style="fill: #6c8ebf"/>
   </g>
   <g id="patch_12">
    <path d="M 886.84412 1049.737402 
L 903.953559 1049.737402 
L 903.953559 91.951013 
L 886.84412 91.951013 
z
" clip-path="url(#pee1724a627)" style="fill: #6c8ebf"/>
   </g>
   <g id="patch_13">
    <path d="M 134.028814 1049.737402 
L 151.138253 1049.737402 
L 151.138253 121.537805 
L 134.028814 121.537805 
z
" clip-path="url(#pee1724a627)" style="fill: #d6d6d6"/>
   </g>
   <g id="patch_14">
    <path d="M 219.576008 1049.737402 
L 236.685446 1049.737402 
L 236.685446 167.441566 
L 219.576008 167.441566 
z
" clip-path="url(#pee1724a627)" style="fill: #d6d6d6"/>
   </g>
   <g id="patch_15">
    <path d="M 305.123202 1049.737402 
L 322.23264 1049.737402 
L 322.23264 284.70749 
L 305.123202 284.70749 
z
" clip-path="url(#pee1724a627)" style="fill: #d6d6d6"/>
   </g>
   <g id="patch_16">
    <path d="M 390.670395 1049.737402 
L 407.779834 1049.737402 
L 407.779834 120.358265 
L 390.670395 120.358265 
z
" clip-path="url(#pee1724a627)" style="fill: #d6d6d6"/>
   </g>
   <g id="patch_17">
    <path d="M 476.217589 1049.737402 
L 493.327028 1049.737402 
L 493.327028 135.790579 
L 476.217589 135.790579 
z
" clip-path="url(#pee1724a627)" style="fill: #d6d6d6"/>
   </g>
   <g id="patch_18">
    <path d="M 561.764783 1049.737402 
L 578.874222 1049.737402 
L 578.874222 152.893907 
L 561.764783 152.893907 
z
" clip-path="url(#pee1724a627)" style="fill: #d6d6d6"/>
   </g>
   <g id="patch_19">
    <path d="M 647.311977 1049.737402 
L 664.421416 1049.737402 
L 664.421416 169.309171 
L 647.311977 169.309171 
z
" clip-path="url(#pee1724a627)" style="fill: #d6d6d6"/>
   </g>
   <g id="patch_20">
    <path d="M 732.859171 1049.737402 
L 749.96861 1049.737402 
L 749.96861 257.184892 
L 732.859171 257.184892 
z
" clip-path="url(#pee1724a627)" style="fill: #d6d6d6"/>
   </g>
   <g id="patch_21">
    <path d="M 818.406365 1049.737402 
L 835.515804 1049.737402 
L 835.515804 181.399454 
L 818.406365 181.399454 
z
" clip-path="url(#pee1724a627)" style="fill: #d6d6d6"/>
   </g>
   <g id="patch_22">
    <path d="M 903.953559 1049.737402 
L 921.062997 1049.737402 
L 921.062997 95.489633 
L 903.953559 95.489633 
z
" clip-path="url(#pee1724a627)" style="fill: #d6d6d6"/>
   </g>
   <g id="patch_23">
    <path d="M 151.138253 1049.737402 
L 168.247691 1049.737402 
L 168.247691 241.162809 
L 151.138253 241.162809 
z
" clip-path="url(#pee1724a627)" style="fill: #8c8c8c"/>
   </g>
   <g id="patch_24">
    <path d="M 236.685446 1049.737402 
L 253.794885 1049.737402 
L 253.794885 236.248059 
L 236.685446 236.248059 
z
" clip-path="url(#pee1724a627)" style="fill: #8c8c8c"/>
   </g>
   <g id="patch_25">
    <path d="M 322.23264 1049.737402 
L 339.342079 1049.737402 
L 339.342079 327.269221 
L 322.23264 327.269221 
z
" clip-path="url(#pee1724a627)" style="fill: #8c8c8c"/>
   </g>
   <g id="patch_26">
    <path d="M 407.779834 1049.737402 
L 424.889273 1049.737402 
L 424.889273 223.371415 
L 407.779834 223.371415 
z
" clip-path="url(#pee1724a627)" style="fill: #8c8c8c"/>
   </g>
   <g id="patch_27">
    <path d="M 493.327028 1049.737402 
L 510.436467 1049.737402 
L 510.436467 227.40151 
L 493.327028 227.40151 
z
" clip-path="url(#pee1724a627)" style="fill: #8c8c8c"/>
   </g>
   <g id="patch_28">
    <path d="M 578.874222 1049.737402 
L 595.983661 1049.737402 
L 595.983661 254.039453 
L 578.874222 254.039453 
z
" clip-path="url(#pee1724a627)" style="fill: #8c8c8c"/>
   </g>
   <g id="patch_29">
    <path d="M 664.421416 1049.737402 
L 681.530855 1049.737402 
L 681.530855 305.349438 
L 664.421416 305.349438 
z
" clip-path="url(#pee1724a627)" style="fill: #8c8c8c"/>
   </g>
   <g id="patch_30">
    <path d="M 749.96861 1049.737402 
L 767.078048 1049.737402 
L 767.078048 289.425649 
L 749.96861 289.425649 
z
" clip-path="url(#pee1724a627)" style="fill: #8c8c8c"/>
   </g>
   <g id="patch_31">
    <path d="M 835.515804 1049.737402 
L 852.625242 1049.737402 
L 852.625242 214.328276 
L 835.515804 214.328276 
z
" clip-path="url(#pee1724a627)" style="fill: #8c8c8c"/>
   </g>
   <g id="patch_32">
    <path d="M 921.062997 1049.737402 
L 938.172436 1049.737402 
L 938.172436 208.823757 
L 921.062997 208.823757 
z
" clip-path="url(#pee1724a627)" style="fill: #8c8c8c"/>
   </g>
   <g id="patch_33">
    <path d="M 168.247691 1049.737402 
L 185.35713 1049.737402 
L 185.35713 229.564 
L 168.247691 229.564 
z
" clip-path="url(#pee1724a627)" style="fill: #aeb2d1"/>
   </g>
   <g id="patch_34">
    <path d="M 253.794885 1049.737402 
L 270.904324 1049.737402 
L 270.904324 245.880968 
L 253.794885 245.880968 
z
" clip-path="url(#pee1724a627)" style="fill: #aeb2d1"/>
   </g>
   <g id="patch_35">
    <path d="M 339.342079 1049.737402 
L 356.451518 1049.737402 
L 356.451518 319.307326 
L 339.342079 319.307326 
z
" clip-path="url(#pee1724a627)" style="fill: #aeb2d1"/>
   </g>
   <g id="patch_36">
    <path d="M 424.889273 1049.737402 
L 441.998712 1049.737402 
L 441.998712 231.431605 
L 424.889273 231.431605 
z
" clip-path="url(#pee1724a627)" style="fill: #aeb2d1"/>
   </g>
   <g id="patch_37">
    <path d="M 510.436467 1049.737402 
L 527.545906 1049.737402 
L 527.545906 239.491794 
L 510.436467 239.491794 
z
" clip-path="url(#pee1724a627)" style="fill: #aeb2d1"/>
   </g>
   <g id="patch_38">
    <path d="M 595.983661 1049.737402 
L 613.093099 1049.737402 
L 613.093099 239.491794 
L 595.983661 239.491794 
z
" clip-path="url(#pee1724a627)" style="fill: #aeb2d1"/>
   </g>
   <g id="patch_39">
    <path d="M 681.530855 1049.737402 
L 698.640293 1049.737402 
L 698.640293 353.415688 
L 681.530855 353.415688 
z
" clip-path="url(#pee1724a627)" style="fill: #aeb2d1"/>
   </g>
   <g id="patch_40">
    <path d="M 767.078048 1049.737402 
L 784.187487 1049.737402 
L 784.187487 263.377477 
L 767.078048 263.377477 
z
" clip-path="url(#pee1724a627)" style="fill: #aeb2d1"/>
   </g>
   <g id="patch_41">
    <path d="M 852.625242 1049.737402 
L 869.734681 1049.737402 
L 869.734681 218.456666 
L 852.625242 218.456666 
z
" clip-path="url(#pee1724a627)" style="fill: #aeb2d1"/>
   </g>
   <g id="patch_42">
    <path d="M 938.172436 1049.737402 
L 955.281875 1049.737402 
L 955.281875 214.524866 
L 938.172436 214.524866 
z
" clip-path="url(#pee1724a627)" style="fill: #aeb2d1"/>
   </g>
   <g id="matplotlib.axis_1">
    <g id="xtick_1">
     <g id="line2d_1">
      <defs>
       <path id="mdc4e2d1c00" d="M 0 0 
L 0 3.5 
" style="stroke: #000000; stroke-width: 0.8"/>
      </defs>
      <g>
       <use xlink:href="#mdc4e2d1c00" x="151.138253" y="361.672467" style="stroke: #000000; stroke-width: 0.8"/>
      </g>
     </g>
     <g id="text_1">
      <!-- Exper1 -->
      <g transform="translate(130.188849 395.837169) rotate(-20) scale(0.16 -0.16)">
       <defs>
        <path id="SimSun-45" d="M 200 4225 
L 200 4375 
L 2650 4375 
L 2925 3525 
L 2800 3475 
Q 2600 3850 2375 4037 
Q 2150 4225 1875 4225 
L 1175 4225 
Q 1075 4225 1012 4175 
Q 950 4125 950 4025 
L 950 2475 
L 1675 2475 
Q 1925 2475 2037 2600 
Q 2150 2725 2150 2975 
L 2150 3125 
L 2300 3125 
L 2300 1650 
L 2150 1650 
L 2150 1750 
Q 2150 2025 2037 2175 
Q 1925 2325 1675 2325 
L 950 2325 
L 950 450 
Q 950 350 1012 300 
Q 1075 250 1175 250 
L 1825 250 
Q 2200 250 2462 462 
Q 2725 675 2875 1125 
L 3000 1075 
L 2725 100 
L 175 100 
L 175 250 
L 325 250 
Q 450 250 500 300 
Q 550 350 550 450 
L 550 4025 
Q 550 4125 500 4175 
Q 450 4225 325 4225 
L 200 4225 
z
" transform="scale(0.015625)"/>
        <path id="SimSun-78" d="M 1675 1825 
L 2125 2500 
Q 2200 2600 2187 2675 
Q 2175 2750 2000 2750 
L 1850 2750 
L 1850 2900 
L 2825 2900 
L 2825 2750 
L 2700 2750 
Q 2650 2750 2575 2737 
Q 2500 2725 2450 2650 
L 1775 1650 
L 2475 500 
Q 2550 375 2662 312 
Q 2775 250 2825 250 
L 2925 250 
L 2925 100 
L 1825 100 
L 1825 250 
L 1975 250 
Q 2125 250 2137 325 
Q 2150 400 2100 500 
L 1575 1350 
L 975 475 
Q 950 350 987 300 
Q 1025 250 1125 250 
L 1200 250 
L 1200 100 
L 225 100 
L 225 250 
L 375 250 
Q 475 250 600 325 
Q 725 400 800 550 
L 1450 1525 
L 800 2575 
Q 775 2625 700 2687 
Q 625 2750 500 2750 
L 375 2750 
L 375 2900 
L 1450 2900 
L 1450 2750 
L 1375 2750 
Q 1250 2750 1225 2675 
Q 1200 2600 1250 2500 
L 1675 1825 
z
M 600 250 
L 600 250 
z
M 825 250 
L 825 250 
z
M 2525 2750 
L 2525 2750 
z
M 2300 2750 
L 2300 2750 
z
M 2250 250 
L 2250 250 
z
M 2625 250 
L 2625 250 
z
M 1100 2750 
L 1100 2750 
z
M 700 2750 
L 700 2750 
z
" transform="scale(0.015625)"/>
        <path id="SimSun-70" d="M 1150 -675 
L 1325 -675 
L 1325 -825 
L 175 -825 
L 175 -675 
L 325 -675 
Q 450 -675 500 -625 
Q 550 -575 550 -450 
L 550 2500 
Q 550 2600 500 2662 
Q 450 2725 325 2725 
L 175 2725 
L 175 2875 
L 400 2875 
Q 525 2875 637 2900 
Q 750 2925 850 3000 
L 900 3000 
L 900 2425 
Q 1075 2675 1287 2800 
Q 1500 2925 1750 2925 
Q 2250 2925 2575 2587 
Q 2900 2250 2900 1525 
Q 2900 825 2550 450 
Q 2200 75 1725 75 
Q 1450 75 1262 162 
Q 1075 250 900 425 
L 900 -450 
Q 900 -575 975 -625 
Q 1050 -675 1150 -675 
z
M 900 750 
Q 1025 500 1212 375 
Q 1400 250 1650 250 
Q 2000 250 2250 562 
Q 2500 875 2500 1525 
Q 2500 2125 2312 2425 
Q 2125 2725 1750 2725 
Q 1525 2725 1300 2587 
Q 1075 2450 900 2150 
L 900 750 
z
" transform="scale(0.015625)"/>
        <path id="SimSun-65" d="M 2400 1650 
Q 2425 2200 2212 2487 
Q 2000 2775 1650 2775 
Q 1275 2775 1037 2475 
Q 800 2175 800 1650 
L 2400 1650 
z
M 800 1500 
Q 800 825 1062 537 
Q 1325 250 1750 250 
Q 2075 250 2300 437 
Q 2525 625 2625 900 
L 2750 850 
Q 2675 575 2412 312 
Q 2150 50 1700 50 
Q 1125 50 762 425 
Q 400 800 400 1500 
Q 400 2125 762 2537 
Q 1125 2950 1650 2950 
Q 2125 2950 2475 2625 
Q 2825 2300 2825 1500 
L 800 1500 
z
" transform="scale(0.015625)"/>
        <path id="SimSun-72" d="M 1275 2125 
Q 1525 2525 1812 2737 
Q 2100 2950 2400 2950 
Q 2650 2950 2787 2837 
Q 2925 2725 2925 2575 
Q 2925 2450 2862 2375 
Q 2800 2300 2675 2300 
Q 2550 2300 2487 2375 
Q 2425 2450 2450 2575 
Q 2450 2650 2425 2700 
Q 2400 2750 2275 2750 
Q 2075 2750 1787 2500 
Q 1500 2250 1275 1800 
L 1275 450 
Q 1275 350 1337 300 
Q 1400 250 1500 250 
L 2050 250 
L 2050 100 
L 200 100 
L 200 250 
L 700 250 
Q 825 250 875 300 
Q 925 350 925 450 
L 925 2525 
Q 925 2625 875 2687 
Q 825 2750 700 2750 
L 225 2750 
L 225 2900 
L 425 2900 
Q 600 2900 837 2937 
Q 1075 2975 1200 3025 
L 1275 3025 
L 1275 2125 
z
" transform="scale(0.015625)"/>
        <path id="SimSun-31" d="M 1825 4450 
L 1825 650 
Q 1825 450 1950 350 
Q 2075 250 2300 250 
L 2550 250 
L 2550 100 
L 725 100 
L 725 250 
L 950 250 
Q 1200 250 1312 350 
Q 1425 450 1425 650 
L 1425 3675 
Q 1425 3775 1362 3837 
Q 1300 3900 1175 3900 
L 725 3900 
L 725 4050 
L 950 4050 
Q 1250 4050 1437 4150 
Q 1625 4250 1725 4450 
L 1825 4450 
z
" transform="scale(0.015625)"/>
       </defs>
       <use xlink:href="#SimSun-45"/>
       <use xlink:href="#SimSun-78" x="50"/>
       <use xlink:href="#SimSun-70" x="100"/>
       <use xlink:href="#SimSun-65" x="150"/>
       <use xlink:href="#SimSun-72" x="200"/>
       <use xlink:href="#SimSun-31" x="250"/>
      </g>
     </g>
    </g>
    <g id="xtick_2">
     <g id="line2d_2">
      <g>
       <use xlink:href="#mdc4e2d1c00" x="236.685446" y="361.672467" style="stroke: #000000; stroke-width: 0.8"/>
      </g>
     </g>
     <g id="text_2">
      <!-- Exper2 -->
      <g transform="translate(215.736043 395.837169) rotate(-20) scale(0.16 -0.16)">
       <defs>
        <path id="SimSun-32" d="M 2325 3325 
Q 2325 3775 2125 4012 
Q 1925 4250 1525 4250 
Q 1225 4250 1012 4087 
Q 800 3925 800 3675 
Q 800 3525 900 3425 
Q 975 3325 975 3225 
Q 975 3100 912 3037 
Q 850 2975 725 2975 
Q 575 2975 487 3062 
Q 400 3150 400 3350 
Q 400 3875 775 4150 
Q 1150 4425 1575 4425 
Q 2175 4425 2462 4125 
Q 2750 3825 2750 3375 
Q 2750 3075 2612 2775 
Q 2475 2475 2175 2200 
Q 1450 1500 1062 1062 
Q 675 625 600 475 
L 2075 475 
Q 2300 475 2450 650 
Q 2600 825 2650 1175 
L 2800 1175 
L 2650 100 
L 325 100 
L 325 425 
Q 450 650 737 1000 
Q 1025 1350 1500 1825 
Q 1925 2250 2125 2625 
Q 2325 3000 2325 3325 
z
" transform="scale(0.015625)"/>
       </defs>
       <use xlink:href="#SimSun-45"/>
       <use xlink:href="#SimSun-78" x="50"/>
       <use xlink:href="#SimSun-70" x="100"/>
       <use xlink:href="#SimSun-65" x="150"/>
       <use xlink:href="#SimSun-72" x="200"/>
       <use xlink:href="#SimSun-32" x="250"/>
      </g>
     </g>
    </g>
    <g id="xtick_3">
     <g id="line2d_3">
      <g>
       <use xlink:href="#mdc4e2d1c00" x="322.23264" y="361.672467" style="stroke: #000000; stroke-width: 0.8"/>
      </g>
     </g>
     <g id="text_3">
      <!-- Exper3 -->
      <g transform="translate(301.283237 395.837169) rotate(-20) scale(0.16 -0.16)">
       <defs>
        <path id="SimSun-33" d="M 2800 1250 
Q 2800 775 2450 412 
Q 2100 50 1475 50 
Q 1025 50 700 300 
Q 375 550 375 875 
Q 375 1025 475 1137 
Q 575 1250 675 1250 
Q 825 1250 887 1137 
Q 950 1025 950 950 
Q 950 825 900 750 
Q 850 650 850 575 
Q 850 425 1037 325 
Q 1225 225 1450 225 
Q 1900 225 2125 487 
Q 2350 750 2350 1300 
Q 2350 1750 2112 2025 
Q 1875 2300 1225 2300 
L 1225 2475 
Q 1725 2475 1962 2712 
Q 2200 2950 2200 3375 
Q 2200 3725 2012 3987 
Q 1825 4250 1425 4250 
Q 1250 4250 1050 4162 
Q 850 4075 850 3875 
Q 850 3675 900 3625 
Q 950 3575 950 3500 
Q 950 3375 900 3300 
Q 850 3225 725 3225 
Q 625 3225 537 3300 
Q 450 3375 450 3575 
Q 450 3950 775 4187 
Q 1100 4425 1525 4425 
Q 2025 4425 2325 4112 
Q 2625 3800 2625 3450 
Q 2625 3075 2437 2812 
Q 2250 2550 1850 2425 
Q 2400 2225 2600 1900 
Q 2800 1575 2800 1250 
z
" transform="scale(0.015625)"/>
       </defs>
       <use xlink:href="#SimSun-45"/>
       <use xlink:href="#SimSun-78" x="50"/>
       <use xlink:href="#SimSun-70" x="100"/>
       <use xlink:href="#SimSun-65" x="150"/>
       <use xlink:href="#SimSun-72" x="200"/>
       <use xlink:href="#SimSun-33" x="250"/>
      </g>
     </g>
    </g>
    <g id="xtick_4">
     <g id="line2d_4">
      <g>
       <use xlink:href="#mdc4e2d1c00" x="407.779834" y="361.672467" style="stroke: #000000; stroke-width: 0.8"/>
      </g>
     </g>
     <g id="text_4">
      <!-- Exper4 -->
      <g transform="translate(386.830431 395.837169) rotate(-20) scale(0.16 -0.16)">
       <defs>
        <path id="SimSun-34" d="M 2300 575 
Q 2300 400 2400 325 
Q 2500 250 2675 250 
L 2900 250 
L 2900 100 
L 1250 100 
L 1250 250 
L 1525 250 
Q 1725 250 1812 325 
Q 1900 400 1900 575 
L 1900 1400 
L 225 1400 
L 225 1525 
L 2050 4425 
L 2300 4425 
L 2300 1550 
L 2975 1550 
L 2975 1400 
L 2300 1400 
L 2300 575 
z
M 1875 3800 
L 450 1550 
L 1900 1550 
L 1900 3800 
L 1875 3800 
z
" transform="scale(0.015625)"/>
       </defs>
       <use xlink:href="#SimSun-45"/>
       <use xlink:href="#SimSun-78" x="50"/>
       <use xlink:href="#SimSun-70" x="100"/>
       <use xlink:href="#SimSun-65" x="150"/>
       <use xlink:href="#SimSun-72" x="200"/>
       <use xlink:href="#SimSun-34" x="250"/>
      </g>
     </g>
    </g>
    <g id="xtick_5">
     <g id="line2d_5">
      <g>
       <use xlink:href="#mdc4e2d1c00" x="493.327028" y="361.672467" style="stroke: #000000; stroke-width: 0.8"/>
      </g>
     </g>
     <g id="text_5">
      <!-- Exper5 -->
      <g transform="translate(472.377625 395.837169) rotate(-20) scale(0.16 -0.16)">
       <defs>
        <path id="SimSun-35" d="M 1725 2850 
Q 2200 2850 2500 2487 
Q 2800 2125 2800 1525 
Q 2800 850 2487 450 
Q 2175 50 1525 50 
Q 1075 50 725 312 
Q 375 575 375 950 
Q 375 1100 462 1212 
Q 550 1325 700 1325 
Q 850 1325 900 1225 
Q 950 1125 950 1050 
Q 950 900 875 825 
Q 800 725 800 625 
Q 800 425 1037 325 
Q 1275 225 1550 225 
Q 1950 225 2162 550 
Q 2375 875 2375 1475 
Q 2375 1975 2187 2287 
Q 2000 2600 1625 2600 
Q 1350 2600 1150 2500 
Q 950 2400 775 2075 
L 550 2100 
L 675 4375 
L 2725 4375 
L 2650 4000 
L 850 4000 
L 750 2350 
Q 1000 2700 1237 2775 
Q 1475 2850 1725 2850 
z
" transform="scale(0.015625)"/>
       </defs>
       <use xlink:href="#SimSun-45"/>
       <use xlink:href="#SimSun-78" x="50"/>
       <use xlink:href="#SimSun-70" x="100"/>
       <use xlink:href="#SimSun-65" x="150"/>
       <use xlink:href="#SimSun-72" x="200"/>
       <use xlink:href="#SimSun-35" x="250"/>
      </g>
     </g>
    </g>
    <g id="xtick_6">
     <g id="line2d_6">
      <g>
       <use xlink:href="#mdc4e2d1c00" x="578.874222" y="361.672467" style="stroke: #000000; stroke-width: 0.8"/>
      </g>
     </g>
     <g id="text_6">
      <!-- Exper6 -->
      <g transform="translate(557.924818 395.837169) rotate(-20) scale(0.16 -0.16)">
       <defs>
        <path id="SimSun-36" d="M 775 1800 
Q 775 1050 1037 637 
Q 1300 225 1675 225 
Q 2050 225 2250 500 
Q 2450 775 2450 1525 
Q 2450 2025 2237 2300 
Q 2025 2575 1725 2575 
Q 1450 2575 1212 2412 
Q 975 2250 775 1800 
z
M 1750 2825 
Q 2350 2825 2612 2425 
Q 2875 2025 2875 1525 
Q 2875 775 2512 412 
Q 2150 50 1675 50 
Q 1000 50 650 562 
Q 300 1075 300 2050 
Q 300 3200 725 3812 
Q 1150 4425 1875 4425 
Q 2225 4425 2437 4225 
Q 2650 4025 2650 3875 
Q 2650 3725 2587 3650 
Q 2525 3575 2375 3575 
Q 2250 3575 2187 3637 
Q 2125 3700 2125 3825 
Q 2125 3875 2150 3925 
Q 2150 3975 2150 4025 
Q 2150 4125 2075 4187 
Q 2000 4250 1800 4250 
Q 1375 4250 1075 3862 
Q 775 3475 775 2175 
Q 925 2500 1187 2662 
Q 1450 2825 1750 2825 
z
" transform="scale(0.015625)"/>
       </defs>
       <use xlink:href="#SimSun-45"/>
       <use xlink:href="#SimSun-78" x="50"/>
       <use xlink:href="#SimSun-70" x="100"/>
       <use xlink:href="#SimSun-65" x="150"/>
       <use xlink:href="#SimSun-72" x="200"/>
       <use xlink:href="#SimSun-36" x="250"/>
      </g>
     </g>
    </g>
    <g id="xtick_7">
     <g id="line2d_7">
      <g>
       <use xlink:href="#mdc4e2d1c00" x="664.421416" y="361.672467" style="stroke: #000000; stroke-width: 0.8"/>
      </g>
     </g>
     <g id="text_7">
      <!-- Exper7 -->
      <g transform="translate(643.472012 395.837169) rotate(-20) scale(0.16 -0.16)">
       <defs>
        <path id="SimSun-37" d="M 2825 4200 
Q 2300 3350 1987 2537 
Q 1675 1725 1675 1125 
Q 1675 1025 1700 850 
Q 1700 650 1700 400 
Q 1700 200 1637 125 
Q 1575 50 1425 50 
Q 1300 50 1212 137 
Q 1125 225 1125 450 
Q 1125 925 1337 1625 
Q 1550 2325 2475 4000 
L 1225 4000 
Q 950 4000 787 3825 
Q 625 3650 550 3300 
L 400 3325 
L 575 4375 
L 2825 4375 
L 2825 4200 
z
" transform="scale(0.015625)"/>
       </defs>
       <use xlink:href="#SimSun-45"/>
       <use xlink:href="#SimSun-78" x="50"/>
       <use xlink:href="#SimSun-70" x="100"/>
       <use xlink:href="#SimSun-65" x="150"/>
       <use xlink:href="#SimSun-72" x="200"/>
       <use xlink:href="#SimSun-37" x="250"/>
      </g>
     </g>
    </g>
    <g id="xtick_8">
     <g id="line2d_8">
      <g>
       <use xlink:href="#mdc4e2d1c00" x="749.96861" y="361.672467" style="stroke: #000000; stroke-width: 0.8"/>
      </g>
     </g>
     <g id="text_8">
      <!-- Exper8 -->
      <g transform="translate(729.019206 395.837169) rotate(-20) scale(0.16 -0.16)">
       <defs>
        <path id="SimSun-38" d="M 625 1125 
Q 625 725 887 475 
Q 1150 225 1550 225 
Q 2025 225 2237 475 
Q 2450 725 2450 1100 
Q 2450 1425 2150 1725 
Q 1850 2025 1250 2275 
Q 950 2075 787 1775 
Q 625 1475 625 1125 
z
M 2825 1175 
Q 2825 700 2475 375 
Q 2125 50 1550 50 
Q 1025 50 650 375 
Q 275 700 275 1125 
Q 275 1550 487 1850 
Q 700 2150 1100 2375 
Q 750 2550 562 2812 
Q 375 3075 375 3400 
Q 375 3825 700 4125 
Q 1025 4425 1600 4425 
Q 2125 4425 2450 4125 
Q 2775 3825 2775 3400 
Q 2775 3100 2587 2837 
Q 2400 2575 2000 2375 
Q 2425 2125 2625 1825 
Q 2825 1525 2825 1175 
z
M 2425 3375 
Q 2425 3725 2225 3987 
Q 2025 4250 1600 4250 
Q 1125 4250 925 4000 
Q 725 3750 725 3475 
Q 725 3200 1012 2937 
Q 1300 2675 1825 2475 
Q 2125 2625 2275 2850 
Q 2425 3075 2425 3375 
z
" transform="scale(0.015625)"/>
       </defs>
       <use xlink:href="#SimSun-45"/>
       <use xlink:href="#SimSun-78" x="50"/>
       <use xlink:href="#SimSun-70" x="100"/>
       <use xlink:href="#SimSun-65" x="150"/>
       <use xlink:href="#SimSun-72" x="200"/>
       <use xlink:href="#SimSun-38" x="250"/>
      </g>
     </g>
    </g>
    <g id="xtick_9">
     <g id="line2d_9">
      <g>
       <use xlink:href="#mdc4e2d1c00" x="835.515804" y="361.672467" style="stroke: #000000; stroke-width: 0.8"/>
      </g>
     </g>
     <g id="text_9">
      <!-- Exper9 -->
      <g transform="translate(814.5664 395.837169) rotate(-20) scale(0.16 -0.16)">
       <defs>
        <path id="SimSun-39" d="M 700 3050 
Q 700 2500 912 2212 
Q 1125 1925 1450 1925 
Q 1825 1925 2100 2275 
Q 2375 2625 2375 2925 
Q 2375 3525 2175 3887 
Q 1975 4250 1525 4250 
Q 1100 4250 900 3912 
Q 700 3575 700 3050 
z
M 1375 1700 
Q 875 1700 575 2012 
Q 275 2325 275 3025 
Q 275 3625 600 4025 
Q 925 4425 1525 4425 
Q 2150 4425 2500 3925 
Q 2850 3425 2850 2475 
Q 2850 1425 2437 737 
Q 2025 50 1300 50 
Q 975 50 737 200 
Q 500 350 500 600 
Q 500 700 562 800 
Q 625 900 775 900 
Q 925 900 975 787 
Q 1025 675 1025 525 
Q 1025 425 1050 362 
Q 1075 300 1100 275 
Q 1125 250 1187 237 
Q 1250 225 1325 225 
Q 1775 225 2050 725 
Q 2325 1225 2375 2400 
Q 2250 2100 2000 1900 
Q 1750 1700 1375 1700 
z
" transform="scale(0.015625)"/>
       </defs>
       <use xlink:href="#SimSun-45"/>
       <use xlink:href="#SimSun-78" x="50"/>
       <use xlink:href="#SimSun-70" x="100"/>
       <use xlink:href="#SimSun-65" x="150"/>
       <use xlink:href="#SimSun-72" x="200"/>
       <use xlink:href="#SimSun-39" x="250"/>
      </g>
     </g>
    </g>
    <g id="xtick_10">
     <g id="line2d_10">
      <g>
       <use xlink:href="#mdc4e2d1c00" x="921.062997" y="361.672467" style="stroke: #000000; stroke-width: 0.8"/>
      </g>
     </g>
     <g id="text_10">
      <!-- Exper10 -->
      <g transform="translate(896.354823 398.57333) rotate(-20) scale(0.16 -0.16)">
       <defs>
        <path id="SimSun-30" d="M 1600 4225 
Q 1250 4225 1012 3687 
Q 775 3150 775 2250 
Q 775 1300 1012 775 
Q 1250 250 1600 250 
Q 1975 250 2187 775 
Q 2400 1300 2400 2250 
Q 2400 3150 2200 3687 
Q 2000 4225 1600 4225 
z
M 1600 50 
Q 1050 50 675 625 
Q 300 1200 300 2250 
Q 300 3225 662 3825 
Q 1025 4425 1600 4425 
Q 2150 4425 2512 3850 
Q 2875 3275 2875 2250 
Q 2875 1225 2512 637 
Q 2150 50 1600 50 
z
" transform="scale(0.015625)"/>
       </defs>
       <use xlink:href="#SimSun-45"/>
       <use xlink:href="#SimSun-78" x="50"/>
       <use xlink:href="#SimSun-70" x="100"/>
       <use xlink:href="#SimSun-65" x="150"/>
       <use xlink:href="#SimSun-72" x="200"/>
       <use xlink:href="#SimSun-31" x="250"/>
       <use xlink:href="#SimSun-30" x="300"/>
      </g>
     </g>
    </g>
    <g id="text_11">
     <!-- 模型 -->
     <g transform="translate(518.100625 418.855196) scale(0.18 -0.18)">
      <defs>
       <path id="SimSun-6a21" d="M 1275 -625 
Q 1300 225 1300 2575 
Q 950 1675 275 925 
L 225 975 
Q 1000 2200 1250 3625 
L 675 3625 
L 450 3575 
L 250 3775 
L 1300 3775 
Q 1300 4900 1275 5250 
L 1875 5000 
L 1625 4825 
L 1625 3775 
L 1900 3775 
L 2200 4075 
L 2650 3625 
L 1625 3625 
L 1625 3000 
Q 2200 2725 2337 2562 
Q 2475 2400 2475 2250 
Q 2475 2150 2412 2012 
Q 2350 1875 2300 1875 
Q 2225 1875 2125 2150 
Q 1950 2550 1625 2850 
Q 1625 250 1650 -475 
L 1275 -625 
z
M 4475 4400 
Q 4475 4825 4450 5275 
L 5025 5000 
L 4800 4825 
L 4800 4400 
L 5300 4400 
L 5600 4700 
L 6050 4250 
L 4800 4250 
Q 4800 3975 4825 3775 
L 4475 3650 
L 4475 4250 
L 3625 4250 
L 3625 3775 
L 3275 3600 
Q 3300 3900 3300 4250 
L 2675 4250 
L 2450 4200 
L 2250 4400 
L 3300 4400 
Q 3300 4750 3275 5250 
L 3825 5000 
L 3625 4850 
L 3625 4400 
L 4475 4400 
z
M 2825 1500 
Q 2850 2175 2850 2625 
Q 2850 3075 2825 3675 
L 3175 3475 
L 5000 3475 
L 5200 3700 
L 5550 3400 
L 5350 3250 
Q 5350 1975 5375 1700 
L 5025 1550 
L 5025 1850 
L 4150 1850 
Q 4125 1525 4075 1125 
L 5325 1125 
L 5650 1450 
L 6125 975 
L 4275 975 
Q 4550 550 4987 237 
Q 5425 -75 6100 -125 
L 6100 -225 
Q 5775 -275 5625 -550 
Q 4650 -175 4150 975 
L 4050 975 
Q 3650 -425 1875 -650 
L 1850 -575 
Q 2675 -375 3100 37 
Q 3525 450 3700 975 
L 2850 975 
Q 2525 975 2250 900 
L 2025 1125 
L 3725 1125 
Q 3775 1375 3800 1850 
L 3175 1850 
L 3175 1650 
L 2825 1500 
z
M 3175 3325 
L 3175 2750 
L 5025 2750 
L 5025 3325 
L 3175 3325 
z
M 3175 2600 
L 3175 2000 
L 5025 2000 
L 5025 2600 
L 3175 2600 
z
" transform="scale(0.015625)"/>
       <path id="SimSun-578b" d="M 2575 1675 
Q 2600 2250 2600 2600 
L 2600 3400 
L 1875 3400 
Q 1825 2075 500 1350 
L 450 1425 
Q 1475 2200 1550 3400 
L 1300 3400 
Q 975 3400 700 3325 
L 475 3550 
L 1550 3550 
L 1550 4600 
L 1225 4600 
L 925 4550 
L 725 4750 
L 3000 4750 
L 3300 5050 
L 3750 4600 
L 2925 4600 
L 2925 3550 
L 3200 3550 
L 3525 3875 
L 4000 3400 
L 2925 3400 
L 2925 2600 
Q 2925 2100 2950 1875 
L 2575 1675 
z
M 1875 4600 
L 1875 3550 
L 2600 3550 
L 2600 4600 
L 1875 4600 
z
M 4175 2525 
Q 4200 3100 4200 3650 
Q 4200 4200 4175 4600 
L 4700 4400 
L 4525 4225 
L 4525 2650 
L 4175 2525 
z
M 5200 5225 
L 5725 4975 
L 5550 4800 
L 5550 2225 
Q 5600 1750 5025 1525 
Q 5000 1825 4250 2000 
L 4250 2125 
Q 4900 2050 5062 2062 
Q 5225 2075 5225 2375 
L 5225 4450 
Q 5225 4775 5200 5225 
z
M 3025 1025 
Q 3025 1400 3000 1850 
L 3600 1600 
L 3375 1425 
L 3375 1025 
L 4550 1025 
L 4900 1375 
L 5400 875 
L 3375 875 
L 3375 -150 
L 5025 -150 
L 5425 250 
L 5975 -300 
L 1275 -300 
Q 950 -300 675 -375 
L 450 -150 
L 3025 -150 
L 3025 875 
L 2000 875 
Q 1675 875 1400 800 
L 1175 1025 
L 3025 1025 
z
" transform="scale(0.015625)"/>
      </defs>
      <use xlink:href="#SimSun-6a21"/>
      <use xlink:href="#SimSun-578b" x="100"/>
     </g>
    </g>
   </g>
   <g id="matplotlib.axis_2">
    <g id="ytick_1">
     <g id="line2d_11">
      <path d="M 75.00125 361.672467 
L 997.2 361.672467 
" clip-path="url(#pee1724a627)" style="fill: none; stroke-dasharray: 2.96,1.28; stroke-dashoffset: 0; stroke: #b0b0b0; stroke-opacity: 0.7; stroke-width: 0.8"/>
     </g>
     <g id="line2d_12">
      <defs>
       <path id="m5742c3dc0a" d="M 0 0 
L -3.5 0 
" style="stroke: #000000; stroke-width: 0.8"/>
      </defs>
      <g>
       <use xlink:href="#m5742c3dc0a" x="75.00125" y="361.672467" style="stroke: #000000; stroke-width: 0.8"/>
      </g>
     </g>
     <g id="text_12">
      <!-- 0.70 -->
      <g transform="translate(32.00125 368.106061) scale(0.18 -0.18)">
       <defs>
        <path id="SimSun-2e" d="M 800 25 
Q 650 25 537 125 
Q 425 225 425 400 
Q 425 575 537 675 
Q 650 775 800 775 
Q 950 775 1062 662 
Q 1175 550 1175 400 
Q 1175 225 1062 125 
Q 950 25 800 25 
z
" transform="scale(0.015625)"/>
       </defs>
       <use xlink:href="#SimSun-30"/>
       <use xlink:href="#SimSun-2e" x="50"/>
       <use xlink:href="#SimSun-37" x="100"/>
       <use xlink:href="#SimSun-30" x="150"/>
      </g>
     </g>
    </g>
    <g id="ytick_2">
     <g id="line2d_13">
      <path d="M 75.00125 312.524972 
L 997.2 312.524972 
" clip-path="url(#pee1724a627)" style="fill: none; stroke-dasharray: 2.96,1.28; stroke-dashoffset: 0; stroke: #b0b0b0; stroke-opacity: 0.7; stroke-width: 0.8"/>
     </g>
     <g id="line2d_14">
      <g>
       <use xlink:href="#m5742c3dc0a" x="75.00125" y="312.524972" style="stroke: #000000; stroke-width: 0.8"/>
      </g>
     </g>
     <g id="text_13">
      <!-- 0.75 -->
      <g transform="translate(32.00125 318.958566) scale(0.18 -0.18)">
       <use xlink:href="#SimSun-30"/>
       <use xlink:href="#SimSun-2e" x="50"/>
       <use xlink:href="#SimSun-37" x="100"/>
       <use xlink:href="#SimSun-35" x="150"/>
      </g>
     </g>
    </g>
    <g id="ytick_3">
     <g id="line2d_15">
      <path d="M 75.00125 263.377477 
L 997.2 263.377477 
" clip-path="url(#pee1724a627)" style="fill: none; stroke-dasharray: 2.96,1.28; stroke-dashoffset: 0; stroke: #b0b0b0; stroke-opacity: 0.7; stroke-width: 0.8"/>
     </g>
     <g id="line2d_16">
      <g>
       <use xlink:href="#m5742c3dc0a" x="75.00125" y="263.377477" style="stroke: #000000; stroke-width: 0.8"/>
      </g>
     </g>
     <g id="text_14">
      <!-- 0.80 -->
      <g transform="translate(32.00125 269.81107) scale(0.18 -0.18)">
       <use xlink:href="#SimSun-30"/>
       <use xlink:href="#SimSun-2e" x="50"/>
       <use xlink:href="#SimSun-38" x="100"/>
       <use xlink:href="#SimSun-30" x="150"/>
      </g>
     </g>
    </g>
    <g id="ytick_4">
     <g id="line2d_17">
      <path d="M 75.00125 214.229981 
L 997.2 214.229981 
" clip-path="url(#pee1724a627)" style="fill: none; stroke-dasharray: 2.96,1.28; stroke-dashoffset: 0; stroke: #b0b0b0; stroke-opacity: 0.7; stroke-width: 0.8"/>
     </g>
     <g id="line2d_18">
      <g>
       <use xlink:href="#m5742c3dc0a" x="75.00125" y="214.229981" style="stroke: #000000; stroke-width: 0.8"/>
      </g>
     </g>
     <g id="text_15">
      <!-- 0.85 -->
      <g transform="translate(32.00125 220.663575) scale(0.18 -0.18)">
       <use xlink:href="#SimSun-30"/>
       <use xlink:href="#SimSun-2e" x="50"/>
       <use xlink:href="#SimSun-38" x="100"/>
       <use xlink:href="#SimSun-35" x="150"/>
      </g>
     </g>
    </g>
    <g id="ytick_5">
     <g id="line2d_19">
      <path d="M 75.00125 165.082486 
L 997.2 165.082486 
" clip-path="url(#pee1724a627)" style="fill: none; stroke-dasharray: 2.96,1.28; stroke-dashoffset: 0; stroke: #b0b0b0; stroke-opacity: 0.7; stroke-width: 0.8"/>
     </g>
     <g id="line2d_20">
      <g>
       <use xlink:href="#m5742c3dc0a" x="75.00125" y="165.082486" style="stroke: #000000; stroke-width: 0.8"/>
      </g>
     </g>
     <g id="text_16">
      <!-- 0.90 -->
      <g transform="translate(32.00125 171.51608) scale(0.18 -0.18)">
       <use xlink:href="#SimSun-30"/>
       <use xlink:href="#SimSun-2e" x="50"/>
       <use xlink:href="#SimSun-39" x="100"/>
       <use xlink:href="#SimSun-30" x="150"/>
      </g>
     </g>
    </g>
    <g id="ytick_6">
     <g id="line2d_21">
      <path d="M 75.00125 115.934991 
L 997.2 115.934991 
" clip-path="url(#pee1724a627)" style="fill: none; stroke-dasharray: 2.96,1.28; stroke-dashoffset: 0; stroke: #b0b0b0; stroke-opacity: 0.7; stroke-width: 0.8"/>
     </g>
     <g id="line2d_22">
      <g>
       <use xlink:href="#m5742c3dc0a" x="75.00125" y="115.934991" style="stroke: #000000; stroke-width: 0.8"/>
      </g>
     </g>
     <g id="text_17">
      <!-- 0.95 -->
      <g transform="translate(32.00125 122.368584) scale(0.18 -0.18)">
       <use xlink:href="#SimSun-30"/>
       <use xlink:href="#SimSun-2e" x="50"/>
       <use xlink:href="#SimSun-39" x="100"/>
       <use xlink:href="#SimSun-35" x="150"/>
      </g>
     </g>
    </g>
    <g id="ytick_7">
     <g id="line2d_23">
      <path d="M 75.00125 66.787495 
L 997.2 66.787495 
" clip-path="url(#pee1724a627)" style="fill: none; stroke-dasharray: 2.96,1.28; stroke-dashoffset: 0; stroke: #b0b0b0; stroke-opacity: 0.7; stroke-width: 0.8"/>
     </g>
     <g id="line2d_24">
      <g>
       <use xlink:href="#m5742c3dc0a" x="75.00125" y="66.787495" style="stroke: #000000; stroke-width: 0.8"/>
      </g>
     </g>
     <g id="text_18">
      <!-- 1.00 -->
      <g transform="translate(32.00125 73.221089) scale(0.18 -0.18)">
       <use xlink:href="#SimSun-31"/>
       <use xlink:href="#SimSun-2e" x="50"/>
       <use xlink:href="#SimSun-30" x="100"/>
       <use xlink:href="#SimSun-30" x="150"/>
      </g>
     </g>
    </g>
    <g id="ytick_8">
     <g id="line2d_25">
      <path d="M 75.00125 17.64 
L 997.2 17.64 
" clip-path="url(#pee1724a627)" style="fill: none; stroke-dasharray: 2.96,1.28; stroke-dashoffset: 0; stroke: #b0b0b0; stroke-opacity: 0.7; stroke-width: 0.8"/>
     </g>
     <g id="line2d_26">
      <g>
       <use xlink:href="#m5742c3dc0a" x="75.00125" y="17.64" style="stroke: #000000; stroke-width: 0.8"/>
      </g>
     </g>
     <g id="text_19">
      <!-- 1.05 -->
      <g transform="translate(32.00125 24.073594) scale(0.18 -0.18)">
       <use xlink:href="#SimSun-31"/>
       <use xlink:href="#SimSun-2e" x="50"/>
       <use xlink:href="#SimSun-30" x="100"/>
       <use xlink:href="#SimSun-35" x="150"/>
      </g>
     </g>
    </g>
    <g id="text_20">
     <!-- 分数 -->
     <g transform="translate(25.680937 207.656234) rotate(-90) scale(0.18 -0.18)">
      <defs>
       <path id="SimSun-5206" d="M 2350 5050 
L 2850 4675 
L 2625 4550 
Q 2200 3750 1687 3125 
Q 1175 2500 375 2025 
L 325 2100 
Q 975 2625 1475 3337 
Q 1975 4050 2350 5050 
z
M 4100 4975 
L 3900 4850 
Q 4175 3850 4800 3300 
Q 5425 2750 6125 2625 
L 6125 2550 
Q 5750 2500 5600 2225 
Q 4775 2675 4287 3425 
Q 3800 4175 3625 5175 
L 4100 4975 
z
M 1375 2625 
L 4225 2625 
L 4475 2875 
L 4825 2525 
L 4625 2375 
Q 4575 400 4375 -12 
Q 4175 -425 3675 -600 
Q 3600 -200 2975 -25 
L 2975 75 
Q 3600 -25 3787 -12 
Q 3975 0 4075 275 
Q 4175 550 4275 2475 
L 2975 2475 
Q 2825 1400 2375 662 
Q 1925 -75 650 -625 
L 600 -525 
Q 1725 50 2112 837 
Q 2500 1625 2575 2475 
L 1800 2475 
L 1575 2425 
L 1375 2625 
z
" transform="scale(0.015625)"/>
       <path id="SimSun-6570" d="M 1875 1525 
Q 1675 1200 1500 900 
Q 1825 825 2275 725 
Q 2500 975 2725 1525 
L 1875 1525 
z
M 850 4900 
Q 1325 4600 1425 4450 
Q 1525 4300 1525 4225 
Q 1525 4100 1437 3975 
Q 1350 3850 1300 3850 
Q 1225 3850 1150 4100 
Q 1050 4450 775 4850 
L 850 4900 
z
M 3000 4975 
L 3450 4675 
Q 3250 4625 3100 4425 
Q 2925 4225 2525 3825 
L 2450 3875 
Q 2925 4625 3000 4975 
z
M 1875 5250 
L 2425 5000 
L 2225 4825 
L 2225 3675 
L 2850 3675 
L 3125 3950 
L 3550 3525 
L 2225 3525 
L 2225 3300 
Q 2800 3175 2937 3062 
Q 3075 2950 3075 2775 
Q 3075 2700 3050 2587 
Q 3025 2475 2975 2475 
Q 2925 2475 2800 2650 
Q 2600 2925 2225 3175 
L 2225 2400 
L 1925 2200 
L 2275 2050 
Q 2150 2000 1950 1675 
L 2725 1675 
L 2900 1900 
L 3275 1575 
L 3050 1450 
Q 2800 875 2600 650 
Q 3000 550 3137 437 
Q 3275 325 3275 150 
Q 3275 -25 3200 -25 
Q 3125 -25 3025 75 
Q 2750 275 2400 425 
Q 1525 -275 325 -500 
L 300 -425 
Q 1450 -50 2100 550 
Q 1600 725 1125 800 
Q 1225 950 1525 1525 
L 1200 1525 
Q 875 1525 600 1450 
L 375 1675 
L 1575 1675 
Q 1675 1925 1775 2275 
L 1900 2225 
L 1900 3250 
Q 1225 2475 350 2050 
L 300 2125 
Q 1225 2775 1700 3525 
L 1250 3525 
Q 925 3525 650 3450 
L 425 3675 
L 1900 3675 
Q 1900 4575 1875 5250 
z
M 3925 3525 
Q 4050 2075 4525 1100 
Q 4925 1950 5025 3525 
L 3925 3525 
z
M 4050 5250 
L 4625 4925 
Q 4425 4850 4325 4625 
Q 4225 4400 3950 3675 
L 5375 3675 
L 5675 3975 
L 6125 3525 
L 5400 3525 
Q 5250 1675 4750 775 
Q 5325 75 6100 -100 
L 6100 -200 
Q 5625 -275 5600 -500 
Q 4950 -50 4525 525 
Q 3700 -275 2550 -650 
L 2500 -575 
Q 3650 -50 4325 800 
Q 3850 1975 3825 3375 
Q 3575 2725 3100 2150 
L 3025 2200 
Q 3625 3200 4050 5250 
z
" transform="scale(0.015625)"/>
      </defs>
      <use xlink:href="#SimSun-5206"/>
      <use xlink:href="#SimSun-6570" x="100"/>
     </g>
    </g>
   </g>
   <g id="patch_43">
    <path d="M 75.00125 361.672467 
L 75.00125 17.64 
" style="fill: none; stroke: #000000; stroke-width: 0.8; stroke-linejoin: miter; stroke-linecap: square"/>
   </g>
   <g id="patch_44">
    <path d="M 997.2 361.672467 
L 997.2 17.64 
" style="fill: none; stroke: #000000; stroke-width: 0.8; stroke-linejoin: miter; stroke-linecap: square"/>
   </g>
   <g id="patch_45">
    <path d="M 75.00125 361.672467 
L 997.2 361.672467 
" style="fill: none; stroke: #000000; stroke-width: 0.8; stroke-linejoin: miter; stroke-linecap: square"/>
   </g>
   <g id="patch_46">
    <path d="M 75.00125 17.64 
L 997.2 17.64 
" style="fill: none; stroke: #000000; stroke-width: 0.8; stroke-linejoin: miter; stroke-linecap: square"/>
   </g>
   <g id="legend_1">
    <g id="patch_47">
     <path d="M 898.2 82.35875 
L 990.2 82.35875 
Q 992.2 82.35875 992.2 80.35875 
L 992.2 24.64 
Q 992.2 22.64 990.2 22.64 
L 898.2 22.64 
Q 896.2 22.64 896.2 24.64 
L 896.2 80.35875 
Q 896.2 82.35875 898.2 82.35875 
z
" style="fill: #ffffff; opacity: 0.8; stroke: #cccccc; stroke-linejoin: miter"/>
    </g>
    <g id="patch_48">
     <path d="M 900.2 34.569687 
L 920.2 34.569687 
L 920.2 27.569687 
L 900.2 27.569687 
z
" style="fill: #6c8ebf"/>
    </g>
    <g id="text_21">
     <!-- 单跳 AUC-ROC -->
     <g transform="translate(928.2 34.569687) scale(0.1 -0.1)">
      <defs>
       <path id="SimSun-5355" d="M 1600 3800 
L 1600 2975 
L 2950 2975 
L 2950 3800 
L 1600 3800 
z
M 3300 3800 
L 3300 2975 
L 4725 2975 
L 4725 3800 
L 3300 3800 
z
M 1600 2825 
L 1600 1975 
L 2950 1975 
L 2950 2825 
L 1600 2825 
z
M 3300 2825 
L 3300 1975 
L 4725 1975 
L 4725 2825 
L 3300 2825 
z
M 1825 5150 
L 1875 5225 
Q 2225 5025 2487 4812 
Q 2750 4600 2737 4425 
Q 2725 4250 2637 4162 
Q 2550 4075 2525 4075 
Q 2425 4075 2325 4375 
Q 2175 4750 1825 5150 
z
M 3300 900 
Q 3300 -125 3325 -450 
L 2925 -625 
Q 2950 250 2950 900 
L 825 900 
L 500 850 
L 300 1050 
L 2950 1050 
L 2950 1825 
L 1600 1825 
L 1600 1525 
L 1225 1375 
Q 1250 2075 1250 2775 
Q 1250 3475 1225 4175 
L 1625 3950 
L 3525 3950 
Q 3700 4225 3887 4612 
Q 4075 5000 4150 5275 
L 4650 4900 
Q 4450 4825 4212 4575 
Q 3975 4325 3675 3950 
L 4675 3950 
L 4875 4175 
L 5275 3875 
L 5050 3700 
Q 5050 2175 5075 1700 
L 4725 1550 
L 4725 1825 
L 3300 1825 
L 3300 1050 
L 5175 1050 
L 5575 1450 
L 6125 900 
L 3300 900 
z
" transform="scale(0.015625)"/>
       <path id="SimSun-8df3" d="M 2650 3875 
Q 3075 3525 3187 3350 
Q 3300 3175 3300 3075 
Q 3300 2950 3187 2812 
Q 3075 2675 3050 2675 
Q 2950 2675 2925 2925 
Q 2850 3300 2575 3825 
L 2650 3875 
z
M 4400 4175 
Q 4400 4600 4375 5100 
L 4875 4850 
L 4725 4700 
L 4725 3075 
Q 5275 3625 5500 4150 
L 5900 3725 
L 5675 3675 
Q 5025 3150 4725 2925 
L 4725 2300 
Q 5125 2175 5562 1987 
Q 6000 1800 5925 1512 
Q 5850 1225 5775 1225 
Q 5675 1225 5575 1425 
Q 5325 1800 4725 2175 
L 4725 350 
Q 4700 -50 5025 -25 
L 5425 -25 
Q 5600 -50 5637 287 
Q 5675 625 5675 1050 
L 5800 1050 
Q 5800 650 5850 337 
Q 5900 25 6100 0 
Q 5950 -300 5625 -325 
L 4850 -325 
Q 4375 -350 4400 200 
L 4400 4175 
z
M 3475 5100 
L 4025 4850 
L 3825 4675 
L 3825 2500 
Q 3850 1125 3400 475 
Q 2950 -175 2025 -625 
L 1975 -550 
Q 3450 350 3500 2050 
Q 2675 1500 2550 1200 
L 2225 1625 
Q 2600 1725 3500 2200 
Q 3500 4700 3475 5100 
z
M 275 225 
L 550 300 
Q 550 1800 525 2500 
L 1025 2225 
L 875 2100 
L 875 375 
L 1325 500 
L 1325 3125 
L 925 3125 
L 925 2925 
L 575 2800 
Q 600 3350 600 3837 
Q 600 4325 575 4950 
L 925 4725 
L 2000 4725 
L 2175 4975 
L 2550 4650 
L 2350 4500 
Q 2350 3350 2375 3025 
L 2025 2875 
L 2025 3125 
L 1650 3125 
L 1650 2075 
L 2000 2075 
L 2225 2300 
L 2575 1925 
L 1650 1925 
L 1650 575 
L 2500 800 
L 2525 700 
Q 1800 450 800 25 
L 550 -200 
L 275 225 
z
M 925 4575 
L 925 3275 
L 2025 3275 
L 2025 4575 
L 925 4575 
z
" transform="scale(0.015625)"/>
       <path id="SimSun-20" d="M 0 0 
Q 0 0 0 0 
z
" transform="scale(0.015625)"/>
       <path id="SimSun-41" d="M 2025 1700 
L 900 1700 
L 675 750 
Q 650 625 650 550 
Q 650 450 687 350 
Q 725 250 900 250 
L 975 250 
L 975 100 
L 50 100 
L 50 250 
L 125 250 
Q 225 250 300 312 
Q 375 375 400 525 
L 1375 4350 
L 1750 4475 
L 2700 525 
Q 2750 375 2825 312 
Q 2900 250 3000 250 
L 3075 250 
L 3075 100 
L 2000 100 
L 2000 250 
L 2100 250 
Q 2250 250 2275 312 
Q 2300 375 2300 425 
Q 2300 525 2275 600 
L 2025 1700 
z
M 325 250 
L 325 250 
z
M 575 250 
L 575 250 
z
M 2350 250 
L 2350 250 
z
M 2775 250 
L 2775 250 
z
M 1500 3925 
L 1475 3925 
L 950 1850 
L 2000 1850 
L 1500 3925 
z
" transform="scale(0.015625)"/>
       <path id="SimSun-55" d="M 1625 250 
Q 2000 250 2262 500 
Q 2525 750 2525 1125 
L 2525 4025 
Q 2525 4125 2475 4175 
Q 2425 4225 2300 4225 
L 2150 4225 
L 2150 4375 
L 3050 4375 
L 3050 4225 
L 2900 4225 
Q 2800 4225 2737 4175 
Q 2675 4125 2675 4025 
L 2675 1125 
Q 2675 625 2337 337 
Q 2000 50 1575 50 
Q 1125 50 787 300 
Q 450 550 450 1100 
L 450 4025 
Q 450 4125 400 4175 
Q 350 4225 225 4225 
L 100 4225 
L 100 4375 
L 1200 4375 
L 1200 4225 
L 1075 4225 
Q 975 4225 912 4175 
Q 850 4125 850 4025 
L 850 1100 
Q 850 600 1062 425 
Q 1275 250 1625 250 
z
" transform="scale(0.015625)"/>
       <path id="SimSun-43" d="M 1725 50 
Q 1025 50 612 575 
Q 200 1100 200 2225 
Q 200 3175 637 3800 
Q 1075 4425 1825 4425 
Q 2000 4425 2175 4375 
Q 2350 4300 2475 4300 
Q 2575 4300 2637 4325 
Q 2700 4350 2750 4425 
L 2975 3325 
L 2825 3275 
Q 2675 3750 2425 4000 
Q 2175 4250 1775 4250 
Q 1250 4250 962 3675 
Q 675 3100 675 2250 
Q 675 1325 925 800 
Q 1175 275 1750 275 
Q 2150 275 2437 562 
Q 2725 850 2825 1325 
L 2975 1250 
Q 2850 725 2512 387 
Q 2175 50 1725 50 
z
" transform="scale(0.015625)"/>
       <path id="SimSun-2d" d="M 200 2225 
L 200 2450 
L 2975 2450 
L 2975 2225 
L 200 2225 
z
" transform="scale(0.015625)"/>
       <path id="SimSun-52" d="M 2825 3375 
Q 2825 2875 2550 2600 
Q 2275 2325 1925 2275 
L 2675 425 
Q 2725 325 2787 287 
Q 2850 250 2925 250 
L 3075 250 
L 3075 100 
L 2375 100 
L 1550 2250 
L 975 2250 
L 975 450 
Q 975 350 1037 300 
Q 1100 250 1200 250 
L 1350 250 
L 1350 100 
L 200 100 
L 200 250 
L 350 250 
Q 475 250 525 300 
Q 575 350 575 450 
L 575 4025 
Q 575 4125 525 4175 
Q 475 4225 350 4225 
L 200 4225 
L 200 4375 
L 1625 4375 
Q 2200 4375 2512 4125 
Q 2825 3875 2825 3375 
z
M 2750 250 
L 2750 250 
z
M 975 2400 
L 1525 2400 
Q 1900 2400 2150 2625 
Q 2400 2850 2400 3325 
Q 2400 3750 2175 3987 
Q 1950 4225 1475 4225 
L 1200 4225 
Q 1100 4225 1037 4175 
Q 975 4125 975 4025 
L 975 2400 
z
" transform="scale(0.015625)"/>
       <path id="SimSun-4f" d="M 700 2250 
Q 700 1175 962 687 
Q 1225 200 1625 200 
Q 2050 200 2300 662 
Q 2550 1125 2550 2250 
Q 2550 3150 2337 3700 
Q 2125 4250 1625 4250 
Q 1200 4250 950 3750 
Q 700 3250 700 2250 
z
M 3025 2250 
Q 3025 1225 2625 637 
Q 2225 50 1625 50 
Q 1050 50 637 650 
Q 225 1250 225 2250 
Q 225 3225 612 3825 
Q 1000 4425 1625 4425 
Q 2275 4425 2650 3787 
Q 3025 3150 3025 2250 
z
" transform="scale(0.015625)"/>
      </defs>
      <use xlink:href="#SimSun-5355"/>
      <use xlink:href="#SimSun-8df3" x="100"/>
      <use xlink:href="#SimSun-20" x="200"/>
      <use xlink:href="#SimSun-41" x="250"/>
      <use xlink:href="#SimSun-55" x="300"/>
      <use xlink:href="#SimSun-43" x="350"/>
      <use xlink:href="#SimSun-2d" x="400"/>
      <use xlink:href="#SimSun-52" x="450"/>
      <use xlink:href="#SimSun-4f" x="500"/>
      <use xlink:href="#SimSun-43" x="550"/>
     </g>
    </g>
    <g id="patch_49">
     <path d="M 900.2 48.788437 
L 920.2 48.788437 
L 920.2 41.788437 
L 900.2 41.788437 
z
" style="fill: #d6d6d6"/>
    </g>
    <g id="text_22">
     <!-- 单跳 AUC-PR -->
     <g transform="translate(928.2 48.788437) scale(0.1 -0.1)">
      <defs>
       <path id="SimSun-50" d="M 950 2100 
L 950 450 
Q 950 350 1012 300 
Q 1075 250 1175 250 
L 1350 250 
L 1350 100 
L 150 100 
L 150 250 
L 325 250 
Q 450 250 500 300 
Q 550 350 550 450 
L 550 4025 
Q 550 4125 500 4175 
Q 450 4225 325 4225 
L 175 4225 
L 175 4375 
L 1650 4375 
Q 2275 4375 2612 4062 
Q 2950 3750 2950 3275 
Q 2950 2700 2587 2400 
Q 2225 2100 1725 2100 
L 950 2100 
z
M 1575 2250 
Q 1950 2250 2237 2475 
Q 2525 2700 2525 3250 
Q 2525 3750 2287 3987 
Q 2050 4225 1525 4225 
L 1175 4225 
Q 1075 4225 1012 4175 
Q 950 4125 950 4025 
L 950 2250 
L 1575 2250 
z
" transform="scale(0.015625)"/>
      </defs>
      <use xlink:href="#SimSun-5355"/>
      <use xlink:href="#SimSun-8df3" x="100"/>
      <use xlink:href="#SimSun-20" x="200"/>
      <use xlink:href="#SimSun-41" x="250"/>
      <use xlink:href="#SimSun-55" x="300"/>
      <use xlink:href="#SimSun-43" x="350"/>
      <use xlink:href="#SimSun-2d" x="400"/>
      <use xlink:href="#SimSun-50" x="450"/>
      <use xlink:href="#SimSun-52" x="500"/>
     </g>
    </g>
    <g id="patch_50">
     <path d="M 900.2 62.929062 
L 920.2 62.929062 
L 920.2 55.929062 
L 900.2 55.929062 
z
" style="fill: #8c8c8c"/>
    </g>
    <g id="text_23">
     <!-- 多跳 AUC-ROC -->
     <g transform="translate(928.2 62.929062) scale(0.1 -0.1)">
      <defs>
       <path id="SimSun-591a" d="M 2750 4225 
L 2450 4050 
Q 2975 3750 3050 3625 
Q 3125 3500 3125 3400 
Q 3125 3275 3025 3162 
Q 2925 3050 2900 3050 
Q 2825 3050 2775 3250 
Q 2700 3525 2375 4000 
Q 2050 3800 1662 3600 
Q 1275 3400 775 3200 
L 725 3300 
Q 1700 3775 2312 4312 
Q 2925 4850 3150 5225 
L 3575 4850 
L 3350 4775 
L 2875 4375 
L 4800 4375 
L 5075 4650 
L 5525 4200 
L 5250 4100 
Q 4525 3425 3487 2837 
Q 2450 2250 600 2000 
L 575 2100 
Q 1800 2325 2850 2800 
Q 3900 3275 4800 4225 
L 2750 4225 
z
M 3400 2750 
L 3825 2350 
L 3575 2275 
Q 3500 2200 3175 1950 
L 5125 1950 
L 5375 2200 
L 5800 1775 
L 5525 1650 
Q 4275 350 3050 -75 
Q 1825 -500 550 -600 
L 550 -500 
Q 1950 -300 3087 200 
Q 4225 700 5125 1800 
L 3050 1800 
Q 2175 1150 975 725 
L 925 825 
Q 1675 1200 2287 1637 
Q 2900 2075 3400 2750 
z
M 2625 1475 
Q 3075 1125 3150 962 
Q 3225 800 3225 725 
Q 3225 575 3112 462 
Q 3000 350 2950 350 
Q 2850 350 2825 575 
Q 2775 925 2550 1400 
L 2625 1475 
z
" transform="scale(0.015625)"/>
      </defs>
      <use xlink:href="#SimSun-591a"/>
      <use xlink:href="#SimSun-8df3" x="100"/>
      <use xlink:href="#SimSun-20" x="200"/>
      <use xlink:href="#SimSun-41" x="250"/>
      <use xlink:href="#SimSun-55" x="300"/>
      <use xlink:href="#SimSun-43" x="350"/>
      <use xlink:href="#SimSun-2d" x="400"/>
      <use xlink:href="#SimSun-52" x="450"/>
      <use xlink:href="#SimSun-4f" x="500"/>
      <use xlink:href="#SimSun-43" x="550"/>
     </g>
    </g>
    <g id="patch_51">
     <path d="M 900.2 77.069687 
L 920.2 77.069687 
L 920.2 70.069687 
L 900.2 70.069687 
z
" style="fill: #aeb2d1"/>
    </g>
    <g id="text_24">
     <!-- 多跳 AUC-PR -->
     <g transform="translate(928.2 77.069687) scale(0.1 -0.1)">
      <use xlink:href="#SimSun-591a"/>
      <use xlink:href="#SimSun-8df3" x="100"/>
      <use xlink:href="#SimSun-20" x="200"/>
      <use xlink:href="#SimSun-41" x="250"/>
      <use xlink:href="#SimSun-55" x="300"/>
      <use xlink:href="#SimSun-43" x="350"/>
      <use xlink:href="#SimSun-2d" x="400"/>
      <use xlink:href="#SimSun-50" x="450"/>
      <use xlink:href="#SimSun-52" x="500"/>
     </g>
    </g>
   </g>
  </g>
 </g>
 <defs>
  <clipPath id="pee1724a627">
   <rect x="75.00125" y="17.64" width="922.19875" height="344.032467"/>
  </clipPath>
 </defs>
</svg>
