<?xml version="1.0" encoding="utf-8" standalone="no"?>
<!DOCTYPE svg PUBLIC "-//W3C//DTD SVG 1.1//EN"
  "http://www.w3.org/Graphics/SVG/1.1/DTD/svg11.dtd">
<svg xmlns:xlink="http://www.w3.org/1999/xlink" width="568.7pt" height="423.491719pt" viewBox="0 0 568.7 423.491719" xmlns="http://www.w3.org/2000/svg" version="1.1">
 <metadata>
  <rdf:RDF xmlns:dc="http://purl.org/dc/elements/1.1/" xmlns:cc="http://creativecommons.org/ns#" xmlns:rdf="http://www.w3.org/1999/02/22-rdf-syntax-ns#">
   <cc:Work>
    <dc:type rdf:resource="http://purl.org/dc/dcmitype/StillImage"/>
    <dc:date>2025-06-08T15:52:31.547246</dc:date>
    <dc:format>image/svg+xml</dc:format>
    <dc:creator>
     <cc:Agent>
      <dc:title>Matplotlib v3.9.2, https://matplotlib.org/</dc:title>
     </cc:Agent>
    </dc:creator>
   </cc:Work>
  </rdf:RDF>
 </metadata>
 <defs>
  <style type="text/css">*{stroke-linejoin: round; stroke-linecap: butt}</style>
 </defs>
 <g id="figure_1">
  <g id="patch_1">
   <path d="M 0 423.491719 
L 568.7 423.491719 
L 568.7 0 
L 0 0 
z
" style="fill: #ffffff"/>
  </g>
  <g id="axes_1">
   <g id="patch_2">
    <path d="M 24.2 400.854219 
L 559 400.854219 
L 559 10.774219 
L 24.2 10.774219 
z
" style="fill: #ffffff"/>
   </g>
   <g id="patch_3">
    <path d="M 220.294288 252.93645 
C 207.583867 244.894677 188.856955 242.676634 168.237935 246.77082 
C 147.618916 250.865005 126.791241 260.937147 110.341965 274.768972 
C 93.892689 288.600797 83.164822 305.062999 80.521052 320.529969 
C 77.877281 335.996938 83.533461 349.205866 96.243881 357.247638 
C 108.954302 365.289411 127.681215 367.507454 148.300234 363.413268 
C 168.919254 359.319083 189.746928 349.246941 206.196204 335.415116 
C 222.64548 321.583291 233.373348 305.121089 236.017118 289.65412 
C 238.660888 274.18715 233.004709 260.978223 220.294288 252.93645 
z
" clip-path="url(#pc5c71dda63)" style="fill: #27ae60; opacity: 0.15; stroke: #27ae60; stroke-linejoin: miter"/>
   </g>
   <g id="patch_4">
    <path d="M 335.980891 95.920511 
C 329.358466 107.270769 330.950363 120.623569 340.405984 133.038111 
C 349.861606 145.452653 366.408943 155.915344 386.403636 162.1219 
C 406.398329 168.328455 428.207901 169.772135 447.029046 166.134988 
C 465.85019 162.49784 480.146245 154.076821 486.76867 142.726563 
C 493.391095 131.376304 491.799198 118.023505 482.343577 105.608963 
C 472.887955 93.194421 456.340618 82.731729 436.345925 76.525174 
C 416.351232 70.318619 394.54166 68.874939 375.720515 72.512086 
C 356.899371 76.149234 342.603316 84.570253 335.980891 95.920511 
z
" clip-path="url(#pc5c71dda63)" style="fill: #3498db; opacity: 0.15; stroke: #3498db; stroke-linejoin: miter"/>
   </g>
   <g id="patch_5">
    <path d="M 102.341051 42.965446 
C 91.827178 46.248755 86.531102 57.556023 87.619223 74.396954 
C 88.707343 91.237885 96.09082 112.237492 108.143527 132.770856 
C 120.196235 153.304219 135.934124 171.694881 151.891106 183.892511 
C 167.848088 196.090142 182.721346 201.098858 193.235219 197.815549 
C 203.749092 194.532239 209.045168 183.224972 207.957047 166.384041 
C 206.868927 149.54311 199.48545 128.543503 187.432742 108.010139 
C 175.380035 87.476775 159.642146 69.086113 143.685164 56.888483 
C 127.728182 44.690853 112.854923 39.682137 102.341051 42.965446 
z
" clip-path="url(#pc5c71dda63)" style="fill: #e74c3c; opacity: 0.15; stroke: #e74c3c; stroke-linejoin: miter"/>
   </g>
   <g id="PathCollection_1">
    <defs>
     <path id="mf2a9c906ac" d="M 0 7.071068 
C 1.875269 7.071068 3.673985 6.326016 5 5 
C 6.326016 3.673985 7.071068 1.875269 7.071068 0 
C 7.071068 -1.875269 6.326016 -3.673985 5 -5 
C 3.673985 -6.326016 1.875269 -7.071068 0 -7.071068 
C -1.875269 -7.071068 -3.673985 -6.326016 -5 -5 
C -6.326016 -3.673985 -7.071068 -1.875269 -7.071068 0 
C -7.071068 1.875269 -6.326016 3.673985 -5 5 
C -3.673985 6.326016 -1.875269 7.071068 0 7.071068 
z
" style="stroke: #ffffff; stroke-opacity: 0.8; stroke-width: 2"/>
    </defs>
    <g clip-path="url(#pc5c71dda63)">
     <use xlink:href="#mf2a9c906ac" x="177.823205" y="307.379279" style="fill: #27ae60; fill-opacity: 0.8; stroke: #ffffff; stroke-opacity: 0.8; stroke-width: 2"/>
     <use xlink:href="#mf2a9c906ac" x="183.878787" y="258.776457" style="fill: #27ae60; fill-opacity: 0.8; stroke: #ffffff; stroke-opacity: 0.8; stroke-width: 2"/>
     <use xlink:href="#mf2a9c906ac" x="148.508108" y="310.18413" style="fill: #27ae60; fill-opacity: 0.8; stroke: #ffffff; stroke-opacity: 0.8; stroke-width: 2"/>
     <use xlink:href="#mf2a9c906ac" x="221.242226" y="280.882148" style="fill: #27ae60; fill-opacity: 0.8; stroke: #ffffff; stroke-opacity: 0.8; stroke-width: 2"/>
     <use xlink:href="#mf2a9c906ac" x="139.069382" y="287.461082" style="fill: #27ae60; fill-opacity: 0.8; stroke: #ffffff; stroke-opacity: 0.8; stroke-width: 2"/>
     <use xlink:href="#mf2a9c906ac" x="139.312316" y="316.959608" style="fill: #27ae60; fill-opacity: 0.8; stroke: #ffffff; stroke-opacity: 0.8; stroke-width: 2"/>
     <use xlink:href="#mf2a9c906ac" x="167.605107" y="359.309146" style="fill: #27ae60; fill-opacity: 0.8; stroke: #ffffff; stroke-opacity: 0.8; stroke-width: 2"/>
     <use xlink:href="#mf2a9c906ac" x="88.713546" y="319.784503" style="fill: #27ae60; fill-opacity: 0.8; stroke: #ffffff; stroke-opacity: 0.8; stroke-width: 2"/>
    </g>
   </g>
   <g id="PathCollection_2">
    <defs>
     <path id="m9e03846384" d="M 0 7.071068 
C 1.875269 7.071068 3.673985 6.326016 5 5 
C 6.326016 3.673985 7.071068 1.875269 7.071068 0 
C 7.071068 -1.875269 6.326016 -3.673985 5 -5 
C 3.673985 -6.326016 1.875269 -7.071068 0 -7.071068 
C -1.875269 -7.071068 -3.673985 -6.326016 -5 -5 
C -6.326016 -3.673985 -7.071068 -1.875269 -7.071068 0 
C -7.071068 1.875269 -6.326016 3.673985 -5 5 
C -3.673985 6.326016 -1.875269 7.071068 0 7.071068 
z
" style="stroke: #ffffff; stroke-opacity: 0.8; stroke-width: 2"/>
    </defs>
    <g clip-path="url(#pc5c71dda63)">
     <use xlink:href="#m9e03846384" x="384.675344" y="99.100599" style="fill: #3498db; fill-opacity: 0.8; stroke: #ffffff; stroke-opacity: 0.8; stroke-width: 2"/>
     <use xlink:href="#m9e03846384" x="388.879154" y="149.612576" style="fill: #3498db; fill-opacity: 0.8; stroke: #ffffff; stroke-opacity: 0.8; stroke-width: 2"/>
     <use xlink:href="#m9e03846384" x="484.087172" y="114.89953" style="fill: #3498db; fill-opacity: 0.8; stroke: #ffffff; stroke-opacity: 0.8; stroke-width: 2"/>
     <use xlink:href="#m9e03846384" x="428.008556" y="149.976652" style="fill: #3498db; fill-opacity: 0.8; stroke: #ffffff; stroke-opacity: 0.8; stroke-width: 2"/>
     <use xlink:href="#m9e03846384" x="403.464809" y="105.049067" style="fill: #3498db; fill-opacity: 0.8; stroke: #ffffff; stroke-opacity: 0.8; stroke-width: 2"/>
     <use xlink:href="#m9e03846384" x="379.133648" y="97.302798" style="fill: #3498db; fill-opacity: 0.8; stroke: #ffffff; stroke-opacity: 0.8; stroke-width: 2"/>
    </g>
   </g>
   <g id="PathCollection_3">
    <defs>
     <path id="m9bcbd1e0ec" d="M 0 7.071068 
C 1.875269 7.071068 3.673985 6.326016 5 5 
C 6.326016 3.673985 7.071068 1.875269 7.071068 0 
C 7.071068 -1.875269 6.326016 -3.673985 5 -5 
C 3.673985 -6.326016 1.875269 -7.071068 0 -7.071068 
C -1.875269 -7.071068 -3.673985 -6.326016 -5 -5 
C -6.326016 -3.673985 -7.071068 -1.875269 -7.071068 0 
C -7.071068 1.875269 -6.326016 3.673985 -5 5 
C -3.673985 6.326016 -1.875269 7.071068 0 7.071068 
z
" style="stroke: #ffffff; stroke-opacity: 0.8; stroke-width: 2"/>
    </defs>
    <g clip-path="url(#pc5c71dda63)">
     <use xlink:href="#m9bcbd1e0ec" x="133.808382" y="116.828011" style="fill: #e74c3c; fill-opacity: 0.8; stroke: #ffffff; stroke-opacity: 0.8; stroke-width: 2"/>
     <use xlink:href="#m9bcbd1e0ec" x="133.765548" y="54.103968" style="fill: #e74c3c; fill-opacity: 0.8; stroke: #ffffff; stroke-opacity: 0.8; stroke-width: 2"/>
     <use xlink:href="#m9bcbd1e0ec" x="157.358626" y="139.23861" style="fill: #e74c3c; fill-opacity: 0.8; stroke: #ffffff; stroke-opacity: 0.8; stroke-width: 2"/>
     <use xlink:href="#m9bcbd1e0ec" x="190.892276" y="144.011221" style="fill: #e74c3c; fill-opacity: 0.8; stroke: #ffffff; stroke-opacity: 0.8; stroke-width: 2"/>
     <use xlink:href="#m9bcbd1e0ec" x="166.277519" y="165.626328" style="fill: #e74c3c; fill-opacity: 0.8; stroke: #ffffff; stroke-opacity: 0.8; stroke-width: 2"/>
     <use xlink:href="#m9bcbd1e0ec" x="104.626458" y="102.534846" style="fill: #e74c3c; fill-opacity: 0.8; stroke: #ffffff; stroke-opacity: 0.8; stroke-width: 2"/>
    </g>
   </g>
   <g id="matplotlib.axis_1">
    <g id="xtick_1">
     <g id="line2d_1">
      <defs>
       <path id="md6619c959f" d="M 0 0 
L 0 3.5 
" style="stroke: #000000; stroke-width: 0.8"/>
      </defs>
      <g>
       <use xlink:href="#md6619c959f" x="24.2" y="400.854219" style="stroke: #000000; stroke-width: 0.8"/>
      </g>
     </g>
     <g id="text_1">
      <!-- -8 -->
      <g transform="translate(19.2 415.002656) scale(0.1 -0.1)">
       <defs>
        <path id="SimSun-2d" d="M 200 2225 
L 200 2450 
L 2975 2450 
L 2975 2225 
L 200 2225 
z
" transform="scale(0.015625)"/>
        <path id="SimSun-38" d="M 625 1125 
Q 625 725 887 475 
Q 1150 225 1550 225 
Q 2025 225 2237 475 
Q 2450 725 2450 1100 
Q 2450 1425 2150 1725 
Q 1850 2025 1250 2275 
Q 950 2075 787 1775 
Q 625 1475 625 1125 
z
M 2825 1175 
Q 2825 700 2475 375 
Q 2125 50 1550 50 
Q 1025 50 650 375 
Q 275 700 275 1125 
Q 275 1550 487 1850 
Q 700 2150 1100 2375 
Q 750 2550 562 2812 
Q 375 3075 375 3400 
Q 375 3825 700 4125 
Q 1025 4425 1600 4425 
Q 2125 4425 2450 4125 
Q 2775 3825 2775 3400 
Q 2775 3100 2587 2837 
Q 2400 2575 2000 2375 
Q 2425 2125 2625 1825 
Q 2825 1525 2825 1175 
z
M 2425 3375 
Q 2425 3725 2225 3987 
Q 2025 4250 1600 4250 
Q 1125 4250 925 4000 
Q 725 3750 725 3475 
Q 725 3200 1012 2937 
Q 1300 2675 1825 2475 
Q 2125 2625 2275 2850 
Q 2425 3075 2425 3375 
z
" transform="scale(0.015625)"/>
       </defs>
       <use xlink:href="#SimSun-2d"/>
       <use xlink:href="#SimSun-38" x="50"/>
      </g>
     </g>
    </g>
    <g id="xtick_2">
     <g id="line2d_2">
      <g>
       <use xlink:href="#md6619c959f" x="91.05" y="400.854219" style="stroke: #000000; stroke-width: 0.8"/>
      </g>
     </g>
     <g id="text_2">
      <!-- -6 -->
      <g transform="translate(86.05 415.002656) scale(0.1 -0.1)">
       <defs>
        <path id="SimSun-36" d="M 775 1800 
Q 775 1050 1037 637 
Q 1300 225 1675 225 
Q 2050 225 2250 500 
Q 2450 775 2450 1525 
Q 2450 2025 2237 2300 
Q 2025 2575 1725 2575 
Q 1450 2575 1212 2412 
Q 975 2250 775 1800 
z
M 1750 2825 
Q 2350 2825 2612 2425 
Q 2875 2025 2875 1525 
Q 2875 775 2512 412 
Q 2150 50 1675 50 
Q 1000 50 650 562 
Q 300 1075 300 2050 
Q 300 3200 725 3812 
Q 1150 4425 1875 4425 
Q 2225 4425 2437 4225 
Q 2650 4025 2650 3875 
Q 2650 3725 2587 3650 
Q 2525 3575 2375 3575 
Q 2250 3575 2187 3637 
Q 2125 3700 2125 3825 
Q 2125 3875 2150 3925 
Q 2150 3975 2150 4025 
Q 2150 4125 2075 4187 
Q 2000 4250 1800 4250 
Q 1375 4250 1075 3862 
Q 775 3475 775 2175 
Q 925 2500 1187 2662 
Q 1450 2825 1750 2825 
z
" transform="scale(0.015625)"/>
       </defs>
       <use xlink:href="#SimSun-2d"/>
       <use xlink:href="#SimSun-36" x="50"/>
      </g>
     </g>
    </g>
    <g id="xtick_3">
     <g id="line2d_3">
      <g>
       <use xlink:href="#md6619c959f" x="157.9" y="400.854219" style="stroke: #000000; stroke-width: 0.8"/>
      </g>
     </g>
     <g id="text_3">
      <!-- -4 -->
      <g transform="translate(152.9 415.002656) scale(0.1 -0.1)">
       <defs>
        <path id="SimSun-34" d="M 2300 575 
Q 2300 400 2400 325 
Q 2500 250 2675 250 
L 2900 250 
L 2900 100 
L 1250 100 
L 1250 250 
L 1525 250 
Q 1725 250 1812 325 
Q 1900 400 1900 575 
L 1900 1400 
L 225 1400 
L 225 1525 
L 2050 4425 
L 2300 4425 
L 2300 1550 
L 2975 1550 
L 2975 1400 
L 2300 1400 
L 2300 575 
z
M 1875 3800 
L 450 1550 
L 1900 1550 
L 1900 3800 
L 1875 3800 
z
" transform="scale(0.015625)"/>
       </defs>
       <use xlink:href="#SimSun-2d"/>
       <use xlink:href="#SimSun-34" x="50"/>
      </g>
     </g>
    </g>
    <g id="xtick_4">
     <g id="line2d_4">
      <g>
       <use xlink:href="#md6619c959f" x="224.75" y="400.854219" style="stroke: #000000; stroke-width: 0.8"/>
      </g>
     </g>
     <g id="text_4">
      <!-- -2 -->
      <g transform="translate(219.75 415.002656) scale(0.1 -0.1)">
       <defs>
        <path id="SimSun-32" d="M 2325 3325 
Q 2325 3775 2125 4012 
Q 1925 4250 1525 4250 
Q 1225 4250 1012 4087 
Q 800 3925 800 3675 
Q 800 3525 900 3425 
Q 975 3325 975 3225 
Q 975 3100 912 3037 
Q 850 2975 725 2975 
Q 575 2975 487 3062 
Q 400 3150 400 3350 
Q 400 3875 775 4150 
Q 1150 4425 1575 4425 
Q 2175 4425 2462 4125 
Q 2750 3825 2750 3375 
Q 2750 3075 2612 2775 
Q 2475 2475 2175 2200 
Q 1450 1500 1062 1062 
Q 675 625 600 475 
L 2075 475 
Q 2300 475 2450 650 
Q 2600 825 2650 1175 
L 2800 1175 
L 2650 100 
L 325 100 
L 325 425 
Q 450 650 737 1000 
Q 1025 1350 1500 1825 
Q 1925 2250 2125 2625 
Q 2325 3000 2325 3325 
z
" transform="scale(0.015625)"/>
       </defs>
       <use xlink:href="#SimSun-2d"/>
       <use xlink:href="#SimSun-32" x="50"/>
      </g>
     </g>
    </g>
    <g id="xtick_5">
     <g id="line2d_5">
      <g>
       <use xlink:href="#md6619c959f" x="291.6" y="400.854219" style="stroke: #000000; stroke-width: 0.8"/>
      </g>
     </g>
     <g id="text_5">
      <!-- 0 -->
      <g transform="translate(289.1 415.002656) scale(0.1 -0.1)">
       <defs>
        <path id="SimSun-30" d="M 1600 4225 
Q 1250 4225 1012 3687 
Q 775 3150 775 2250 
Q 775 1300 1012 775 
Q 1250 250 1600 250 
Q 1975 250 2187 775 
Q 2400 1300 2400 2250 
Q 2400 3150 2200 3687 
Q 2000 4225 1600 4225 
z
M 1600 50 
Q 1050 50 675 625 
Q 300 1200 300 2250 
Q 300 3225 662 3825 
Q 1025 4425 1600 4425 
Q 2150 4425 2512 3850 
Q 2875 3275 2875 2250 
Q 2875 1225 2512 637 
Q 2150 50 1600 50 
z
" transform="scale(0.015625)"/>
       </defs>
       <use xlink:href="#SimSun-30"/>
      </g>
     </g>
    </g>
    <g id="xtick_6">
     <g id="line2d_6">
      <g>
       <use xlink:href="#md6619c959f" x="358.45" y="400.854219" style="stroke: #000000; stroke-width: 0.8"/>
      </g>
     </g>
     <g id="text_6">
      <!-- 2 -->
      <g transform="translate(355.95 415.002656) scale(0.1 -0.1)">
       <use xlink:href="#SimSun-32"/>
      </g>
     </g>
    </g>
    <g id="xtick_7">
     <g id="line2d_7">
      <g>
       <use xlink:href="#md6619c959f" x="425.3" y="400.854219" style="stroke: #000000; stroke-width: 0.8"/>
      </g>
     </g>
     <g id="text_7">
      <!-- 4 -->
      <g transform="translate(422.8 415.002656) scale(0.1 -0.1)">
       <use xlink:href="#SimSun-34"/>
      </g>
     </g>
    </g>
    <g id="xtick_8">
     <g id="line2d_8">
      <g>
       <use xlink:href="#md6619c959f" x="492.15" y="400.854219" style="stroke: #000000; stroke-width: 0.8"/>
      </g>
     </g>
     <g id="text_8">
      <!-- 6 -->
      <g transform="translate(489.65 415.002656) scale(0.1 -0.1)">
       <use xlink:href="#SimSun-36"/>
      </g>
     </g>
    </g>
    <g id="xtick_9">
     <g id="line2d_9">
      <g>
       <use xlink:href="#md6619c959f" x="559" y="400.854219" style="stroke: #000000; stroke-width: 0.8"/>
      </g>
     </g>
     <g id="text_9">
      <!-- 8 -->
      <g transform="translate(556.5 415.002656) scale(0.1 -0.1)">
       <use xlink:href="#SimSun-38"/>
      </g>
     </g>
    </g>
   </g>
   <g id="matplotlib.axis_2">
    <g id="ytick_1">
     <g id="line2d_10">
      <defs>
       <path id="m99d8a17bdd" d="M 0 0 
L -3.5 0 
" style="stroke: #000000; stroke-width: 0.8"/>
      </defs>
      <g>
       <use xlink:href="#m99d8a17bdd" x="24.2" y="400.854219" style="stroke: #000000; stroke-width: 0.8"/>
      </g>
     </g>
     <g id="text_10">
      <!-- -8 -->
      <g transform="translate(7.2 404.428437) scale(0.1 -0.1)">
       <use xlink:href="#SimSun-2d"/>
       <use xlink:href="#SimSun-38" x="50"/>
      </g>
     </g>
    </g>
    <g id="ytick_2">
     <g id="line2d_11">
      <g>
       <use xlink:href="#m99d8a17bdd" x="24.2" y="352.094219" style="stroke: #000000; stroke-width: 0.8"/>
      </g>
     </g>
     <g id="text_11">
      <!-- -6 -->
      <g transform="translate(7.2 355.668437) scale(0.1 -0.1)">
       <use xlink:href="#SimSun-2d"/>
       <use xlink:href="#SimSun-36" x="50"/>
      </g>
     </g>
    </g>
    <g id="ytick_3">
     <g id="line2d_12">
      <g>
       <use xlink:href="#m99d8a17bdd" x="24.2" y="303.334219" style="stroke: #000000; stroke-width: 0.8"/>
      </g>
     </g>
     <g id="text_12">
      <!-- -4 -->
      <g transform="translate(7.2 306.908437) scale(0.1 -0.1)">
       <use xlink:href="#SimSun-2d"/>
       <use xlink:href="#SimSun-34" x="50"/>
      </g>
     </g>
    </g>
    <g id="ytick_4">
     <g id="line2d_13">
      <g>
       <use xlink:href="#m99d8a17bdd" x="24.2" y="254.574219" style="stroke: #000000; stroke-width: 0.8"/>
      </g>
     </g>
     <g id="text_13">
      <!-- -2 -->
      <g transform="translate(7.2 258.148437) scale(0.1 -0.1)">
       <use xlink:href="#SimSun-2d"/>
       <use xlink:href="#SimSun-32" x="50"/>
      </g>
     </g>
    </g>
    <g id="ytick_5">
     <g id="line2d_14">
      <g>
       <use xlink:href="#m99d8a17bdd" x="24.2" y="205.814219" style="stroke: #000000; stroke-width: 0.8"/>
      </g>
     </g>
     <g id="text_14">
      <!-- 0 -->
      <g transform="translate(12.2 209.388437) scale(0.1 -0.1)">
       <use xlink:href="#SimSun-30"/>
      </g>
     </g>
    </g>
    <g id="ytick_6">
     <g id="line2d_15">
      <g>
       <use xlink:href="#m99d8a17bdd" x="24.2" y="157.054219" style="stroke: #000000; stroke-width: 0.8"/>
      </g>
     </g>
     <g id="text_15">
      <!-- 2 -->
      <g transform="translate(12.2 160.628437) scale(0.1 -0.1)">
       <use xlink:href="#SimSun-32"/>
      </g>
     </g>
    </g>
    <g id="ytick_7">
     <g id="line2d_16">
      <g>
       <use xlink:href="#m99d8a17bdd" x="24.2" y="108.294219" style="stroke: #000000; stroke-width: 0.8"/>
      </g>
     </g>
     <g id="text_16">
      <!-- 4 -->
      <g transform="translate(12.2 111.868437) scale(0.1 -0.1)">
       <use xlink:href="#SimSun-34"/>
      </g>
     </g>
    </g>
    <g id="ytick_8">
     <g id="line2d_17">
      <g>
       <use xlink:href="#m99d8a17bdd" x="24.2" y="59.534219" style="stroke: #000000; stroke-width: 0.8"/>
      </g>
     </g>
     <g id="text_17">
      <!-- 6 -->
      <g transform="translate(12.2 63.108437) scale(0.1 -0.1)">
       <use xlink:href="#SimSun-36"/>
      </g>
     </g>
    </g>
    <g id="ytick_9">
     <g id="line2d_18">
      <g>
       <use xlink:href="#m99d8a17bdd" x="24.2" y="10.774219" style="stroke: #000000; stroke-width: 0.8"/>
      </g>
     </g>
     <g id="text_18">
      <!-- 8 -->
      <g transform="translate(12.2 14.348437) scale(0.1 -0.1)">
       <use xlink:href="#SimSun-38"/>
      </g>
     </g>
    </g>
   </g>
   <g id="patch_6">
    <path d="M 24.2 400.854219 
L 24.2 10.774219 
" style="fill: none; stroke: #000000; stroke-width: 0.8; stroke-linejoin: miter; stroke-linecap: square"/>
   </g>
   <g id="patch_7">
    <path d="M 559 400.854219 
L 559 10.774219 
" style="fill: none; stroke: #000000; stroke-width: 0.8; stroke-linejoin: miter; stroke-linecap: square"/>
   </g>
   <g id="patch_8">
    <path d="M 24.2 400.854219 
L 559 400.854219 
" style="fill: none; stroke: #000000; stroke-width: 0.8; stroke-linejoin: miter; stroke-linecap: square"/>
   </g>
   <g id="patch_9">
    <path d="M 24.2 10.774219 
L 559 10.774219 
" style="fill: none; stroke: #000000; stroke-width: 0.8; stroke-linejoin: miter; stroke-linecap: square"/>
   </g>
   <g id="text_19">
    <!-- 当归 -->
    <g transform="translate(185.823205 299.379279) scale(0.1 -0.1)">
     <defs>
      <path id="SimSun-5f53" d="M 1050 4650 
Q 1775 4325 2000 4100 
Q 2225 3875 2187 3675 
Q 2150 3475 2012 3400 
Q 1875 3325 1725 3725 
Q 1550 4100 1000 4575 
L 1050 4650 
z
M 4750 4750 
L 5275 4350 
Q 5000 4225 4625 3850 
Q 4225 3475 3875 3175 
L 3800 3250 
Q 4075 3575 4362 4025 
Q 4650 4475 4750 4750 
z
M 5575 2675 
L 5575 750 
Q 5575 150 5600 -425 
L 5200 -575 
L 5200 -100 
L 1475 -100 
Q 1150 -100 875 -175 
L 650 50 
L 5200 50 
L 5200 1375 
L 1950 1375 
Q 1625 1375 1350 1300 
L 1125 1525 
L 5200 1525 
L 5200 2775 
L 1625 2775 
Q 1300 2775 1025 2700 
L 800 2925 
L 3000 2925 
L 3000 4050 
Q 3000 4775 2975 5175 
L 3625 4875 
L 3350 4650 
L 3350 2925 
L 5150 2925 
L 5375 3200 
L 5800 2850 
L 5575 2675 
z
" transform="scale(0.015625)"/>
      <path id="SimSun-5f52" d="M 1275 3950 
Q 1275 1675 1300 1075 
L 900 875 
Q 925 1775 925 2800 
Q 925 3825 900 4450 
L 1450 4150 
L 1275 3950 
z
M 500 -575 
Q 1125 -125 1550 462 
Q 1975 1050 2050 2000 
Q 2125 2950 2125 3775 
Q 2125 4600 2100 5200 
L 2725 4925 
L 2500 4725 
Q 2500 2750 2375 1812 
Q 2250 875 1725 300 
Q 1200 -275 550 -650 
L 500 -575 
z
M 5650 4000 
L 5650 1075 
Q 5650 400 5675 -250 
L 5275 -400 
L 5275 275 
L 3250 275 
Q 2925 275 2650 200 
L 2425 425 
L 5275 425 
L 5275 2300 
L 3650 2300 
Q 3325 2300 3050 2225 
L 2825 2450 
L 5275 2450 
L 5275 4100 
L 3525 4100 
Q 3200 4100 2925 4025 
L 2700 4250 
L 5225 4250 
L 5450 4500 
L 5850 4150 
L 5650 4000 
z
" transform="scale(0.015625)"/>
     </defs>
     <use xlink:href="#SimSun-5f53"/>
     <use xlink:href="#SimSun-5f52" x="100"/>
    </g>
   </g>
   <g id="text_20">
    <!-- 黄芪 -->
    <g transform="translate(191.878787 250.776457) scale(0.1 -0.1)">
     <defs>
      <path id="SimSun-9ec4" d="M 2475 4250 
L 2475 3475 
L 3875 3475 
L 3875 4250 
L 2475 4250 
z
M 1725 2600 
L 1725 1850 
L 3025 1850 
L 3025 2600 
L 1725 2600 
z
M 3350 2600 
L 3350 1850 
L 4700 1850 
L 4700 2600 
L 3350 2600 
z
M 1725 1700 
L 1725 975 
L 3025 975 
L 3025 1700 
L 1725 1700 
z
M 3350 1700 
L 3350 975 
L 4700 975 
L 4700 1700 
L 3350 1700 
z
M 1375 525 
Q 1400 1825 1375 2950 
L 1725 2750 
L 3025 2750 
L 3025 3325 
L 1050 3325 
Q 725 3325 450 3250 
L 225 3475 
L 2150 3475 
L 2150 4250 
L 1625 4250 
Q 1300 4250 1025 4175 
L 800 4400 
L 2150 4400 
Q 2150 5050 2125 5275 
L 2675 5000 
L 2475 4825 
L 2475 4400 
L 3875 4400 
Q 3875 4925 3850 5250 
L 4425 4975 
L 4200 4800 
L 4200 4400 
L 4975 4400 
L 5275 4700 
L 5725 4250 
L 4200 4250 
L 4200 3475 
L 5300 3475 
L 5650 3825 
L 6150 3325 
L 3350 3325 
L 3350 2750 
L 4650 2750 
L 4900 2975 
L 5250 2650 
L 5025 2525 
Q 5025 1125 5050 750 
L 4700 600 
L 4700 825 
L 1725 825 
L 1725 675 
L 1375 525 
z
M 2375 800 
L 2800 400 
L 2525 350 
Q 1300 -425 500 -650 
L 475 -550 
Q 1600 0 2375 800 
z
M 3700 675 
Q 4475 450 5050 212 
Q 5625 -25 5600 -312 
Q 5575 -600 5475 -600 
Q 5350 -600 5150 -375 
Q 4725 75 3675 575 
L 3700 675 
z
" transform="scale(0.015625)"/>
      <path id="SimSun-82aa" d="M 1550 25 
L 3000 575 
L 3050 500 
Q 1950 -75 1750 -225 
Q 1550 -375 1400 -550 
L 1075 -175 
Q 1225 -50 1200 175 
L 1200 2325 
Q 1200 2800 1175 3250 
L 1550 3025 
Q 2950 3150 3575 3275 
Q 4200 3400 4500 3550 
L 4900 3100 
Q 4525 3100 3225 3000 
Q 3275 2375 3400 1850 
L 4850 1850 
L 5250 2225 
L 5725 1700 
L 3450 1700 
Q 3750 975 4375 512 
Q 5000 50 5375 -25 
L 5725 1050 
L 5825 1025 
Q 5750 575 5750 162 
Q 5750 -250 5900 -425 
Q 5975 -525 5825 -525 
Q 5725 -525 5237 -400 
Q 4750 -275 4075 300 
Q 3400 875 3100 1700 
L 1550 1700 
L 1550 25 
z
M 3050 1850 
Q 2950 2400 2900 2950 
Q 2000 2900 1550 2900 
L 1550 1850 
L 3050 1850 
z
M 3750 4300 
Q 3750 4575 3725 5150 
L 4325 4900 
L 4100 4750 
L 4100 4300 
L 5075 4300 
L 5500 4675 
L 6025 4150 
L 4100 4150 
Q 4100 3950 4125 3625 
L 3750 3475 
L 3750 4150 
L 2450 4150 
L 2450 3575 
L 2075 3400 
Q 2100 3825 2100 4150 
L 1125 4150 
Q 800 4150 525 4075 
L 300 4300 
L 2100 4300 
Q 2100 4600 2075 5200 
L 2675 4925 
L 2450 4775 
L 2450 4300 
L 3750 4300 
z
" transform="scale(0.015625)"/>
     </defs>
     <use xlink:href="#SimSun-9ec4"/>
     <use xlink:href="#SimSun-82aa" x="100"/>
    </g>
   </g>
   <g id="text_21">
    <!-- 川芎 -->
    <g transform="translate(156.508108 302.18413) scale(0.1 -0.1)">
     <defs>
      <path id="SimSun-5ddd" d="M 1875 4650 
Q 1900 1900 1550 975 
Q 1200 50 500 -650 
L 425 -600 
Q 1450 675 1487 2100 
Q 1525 3525 1525 4150 
Q 1525 4775 1500 5075 
L 2075 4800 
L 1875 4650 
z
M 3650 4150 
L 3650 1550 
Q 3650 1050 3675 700 
L 3275 425 
Q 3300 1150 3300 1437 
Q 3300 1725 3300 2975 
Q 3300 4225 3275 4600 
L 3850 4350 
L 3650 4150 
z
M 5450 4650 
L 5450 650 
Q 5450 150 5475 -350 
L 5075 -600 
Q 5100 425 5100 1050 
Q 5100 4500 5075 5125 
L 5650 4850 
L 5450 4650 
z
" transform="scale(0.015625)"/>
      <path id="SimSun-828e" d="M 4950 3275 
Q 4950 2750 4975 2250 
L 4575 2100 
L 4575 2375 
L 1750 2375 
L 1525 1550 
L 4900 1550 
L 5125 1825 
L 5575 1425 
L 5325 1300 
Q 5100 600 4962 250 
Q 4825 -100 4612 -300 
Q 4400 -500 3825 -600 
Q 3900 -275 2950 150 
L 2975 250 
Q 3950 -50 4150 -25 
Q 4350 0 4512 275 
Q 4675 550 4925 1400 
L 1525 1400 
L 1325 1200 
L 950 1550 
Q 1125 1575 1237 1987 
Q 1350 2400 1400 2800 
L 1775 2525 
L 4575 2525 
L 4575 3350 
L 2000 3350 
Q 1675 3350 1400 3275 
L 1175 3500 
L 4550 3500 
L 4725 3750 
L 5150 3450 
L 4950 3275 
z
M 2125 4375 
Q 2125 4650 2100 5200 
L 2700 4975 
L 2475 4825 
L 2475 4375 
L 3800 4375 
Q 3800 4675 3775 5200 
L 4375 4950 
L 4150 4800 
L 4150 4375 
L 5125 4375 
L 5550 4750 
L 6075 4225 
L 4150 4225 
Q 4150 4075 4175 3775 
L 3800 3600 
L 3800 4225 
L 2475 4225 
L 2475 3775 
L 2100 3600 
Q 2125 4025 2125 4225 
L 1150 4225 
Q 825 4225 550 4150 
L 325 4375 
L 2125 4375 
z
" transform="scale(0.015625)"/>
     </defs>
     <use xlink:href="#SimSun-5ddd"/>
     <use xlink:href="#SimSun-828e" x="100"/>
    </g>
   </g>
   <g id="text_22">
    <!-- 丹参 -->
    <g transform="translate(229.242226 272.882148) scale(0.1 -0.1)">
     <defs>
      <path id="SimSun-4e39" d="M 1625 2525 
Q 1625 4475 1600 5125 
L 2000 4875 
L 4350 4875 
L 4600 5150 
L 5000 4825 
L 4750 4650 
L 4750 2525 
L 5275 2525 
L 5625 2875 
L 6125 2375 
L 4750 2375 
L 4750 0 
Q 4750 -375 4200 -575 
Q 4175 -250 3275 25 
L 3275 150 
Q 3975 25 4187 37 
Q 4400 50 4400 300 
L 4400 2375 
L 2000 2375 
Q 2000 450 275 -600 
L 225 -500 
Q 1575 475 1625 2375 
L 1075 2375 
Q 750 2375 475 2300 
L 250 2525 
L 1625 2525 
z
M 2675 4200 
Q 3250 3850 3425 3625 
Q 3600 3400 3600 3275 
Q 3600 3150 3487 3000 
Q 3375 2850 3325 2850 
Q 3200 2850 3125 3175 
Q 3000 3650 2625 4125 
L 2675 4200 
z
M 2000 4725 
L 2000 2525 
L 4400 2525 
L 4400 4725 
L 2000 4725 
z
" transform="scale(0.015625)"/>
      <path id="SimSun-53c2" d="M 4700 3900 
Q 3500 3825 3125 3800 
Q 2925 3475 2725 3150 
L 5300 3150 
L 5625 3475 
L 6075 3000 
L 3750 3000 
Q 4325 2400 4950 2150 
Q 5575 1900 6100 1825 
L 6100 1750 
Q 5750 1675 5600 1450 
Q 5025 1675 4487 2062 
Q 3950 2450 3625 3000 
L 2675 3000 
Q 2250 2450 1750 2050 
Q 1250 1650 325 1225 
L 300 1325 
Q 1200 1850 1625 2262 
Q 2050 2675 2275 3000 
L 800 3000 
L 575 2950 
L 375 3150 
L 2350 3150 
Q 2450 3300 2675 3775 
Q 1650 3725 1325 3575 
L 1150 4025 
Q 1550 4050 2125 4487 
Q 2700 4925 2925 5225 
L 3300 4825 
L 3000 4750 
Q 1925 4125 1575 3975 
L 4625 4000 
Q 4300 4300 3850 4550 
L 3900 4650 
Q 4700 4375 5000 4175 
Q 5300 3975 5300 3775 
Q 5300 3725 5250 3587 
Q 5200 3450 5125 3450 
Q 5075 3450 5025 3525 
Q 4900 3700 4700 3900 
z
M 3250 2700 
L 3650 2300 
L 3450 2250 
Q 2125 1300 1075 1025 
L 1050 1125 
Q 1850 1450 2412 1875 
Q 2975 2300 3250 2700 
z
M 3950 1950 
L 4350 1550 
L 4075 1500 
Q 2425 425 1100 225 
L 1075 325 
Q 2250 675 2875 1075 
Q 3500 1475 3950 1950 
z
M 4800 1250 
L 5175 825 
L 4925 775 
Q 3475 -75 2587 -287 
Q 1700 -500 650 -550 
L 650 -450 
Q 2050 -300 3137 187 
Q 4225 675 4800 1250 
z
" transform="scale(0.015625)"/>
     </defs>
     <use xlink:href="#SimSun-4e39"/>
     <use xlink:href="#SimSun-53c2" x="100"/>
    </g>
   </g>
   <g id="text_23">
    <!-- 党参 -->
    <g transform="translate(147.069382 279.461082) scale(0.1 -0.1)">
     <defs>
      <path id="SimSun-515a" d="M 1450 4750 
L 1500 4825 
Q 2200 4550 2325 4387 
Q 2450 4225 2450 4125 
Q 2450 4000 2375 3887 
Q 2300 3775 2250 3775 
Q 2175 3775 2125 3900 
Q 2025 4125 1862 4337 
Q 1700 4550 1450 4750 
z
M 3000 3625 
Q 3000 4825 2975 5225 
L 3550 4950 
L 3325 4750 
L 3325 3625 
L 3675 3625 
Q 3900 3925 4100 4250 
Q 4300 4575 4450 4925 
L 4900 4550 
Q 4675 4450 4387 4175 
Q 4100 3900 3850 3625 
L 5275 3625 
L 5550 3900 
L 5975 3450 
Q 5750 3425 5537 3287 
Q 5325 3150 5050 2875 
L 4975 2925 
L 5300 3475 
L 1125 3475 
Q 1125 2950 950 2850 
Q 775 2750 700 2750 
Q 625 2750 537 2812 
Q 450 2875 450 2900 
Q 450 2975 625 3125 
Q 875 3325 1025 3925 
L 1125 3925 
L 1125 3625 
L 3000 3625 
z
M 2125 2650 
L 2125 1675 
L 4250 1675 
L 4250 2650 
L 2125 2650 
z
M 1775 1125 
Q 1800 1600 1800 2075 
Q 1800 2550 1775 3025 
L 2150 2800 
L 4200 2800 
L 4425 3025 
L 4800 2725 
L 4575 2575 
Q 4575 1700 4600 1425 
L 4250 1275 
L 4250 1525 
L 3775 1525 
L 3775 150 
Q 3775 -150 4050 -150 
L 5275 -150 
Q 5500 -150 5525 275 
Q 5550 700 5550 1000 
L 5675 1000 
Q 5700 575 5750 312 
Q 5800 50 6025 -75 
Q 5875 -475 5400 -450 
L 3975 -450 
Q 3450 -450 3450 -25 
L 3450 1525 
L 2900 1525 
Q 2800 725 2400 187 
Q 2000 -350 275 -650 
L 275 -550 
Q 1725 -175 2087 287 
Q 2450 750 2550 1525 
L 2125 1525 
L 2125 1300 
L 1775 1125 
z
" transform="scale(0.015625)"/>
     </defs>
     <use xlink:href="#SimSun-515a"/>
     <use xlink:href="#SimSun-53c2" x="100"/>
    </g>
   </g>
   <g id="text_24">
    <!-- 茯苓 -->
    <g transform="translate(147.312316 308.959608) scale(0.1 -0.1)">
     <defs>
      <path id="SimSun-832f" d="M 4450 3500 
Q 5000 3350 5200 3225 
Q 5400 3100 5400 2925 
Q 5400 2825 5350 2675 
Q 5300 2525 5250 2525 
Q 5175 2525 5075 2700 
Q 4900 3000 4400 3425 
L 4450 3500 
z
M 3600 2350 
Q 3625 2725 3625 3075 
Q 3625 3400 3600 3700 
L 4250 3375 
L 4025 3225 
Q 4000 2650 3975 2350 
L 5200 2350 
L 5550 2700 
L 6025 2200 
L 4225 2200 
Q 4400 1350 4950 700 
Q 5500 50 6075 -75 
L 6075 -175 
Q 5625 -250 5550 -475 
Q 5075 -125 4650 550 
Q 4225 1225 4100 2200 
L 3950 2200 
Q 3825 1150 3287 475 
Q 2750 -200 1900 -600 
L 1850 -525 
Q 2375 -200 2900 462 
Q 3425 1125 3575 2200 
L 2925 2200 
Q 2600 2200 2325 2125 
L 2100 2350 
L 3600 2350 
z
M 1325 -625 
Q 1350 -75 1350 375 
L 1350 2225 
Q 825 1600 300 1225 
L 250 1300 
Q 650 1700 1100 2387 
Q 1550 3075 1775 3775 
L 2325 3375 
L 2050 3275 
Q 1775 2825 1550 2500 
L 1950 2275 
L 1725 2125 
L 1725 -450 
L 1325 -625 
z
M 2175 3575 
L 2175 4200 
L 1150 4200 
Q 825 4200 550 4125 
L 325 4350 
L 2175 4350 
Q 2175 4775 2150 5200 
L 2750 4950 
L 2550 4800 
L 2550 4350 
L 3900 4350 
Q 3900 4600 3875 5175 
L 4500 4925 
L 4275 4775 
L 4275 4350 
L 5175 4350 
L 5575 4750 
L 6100 4200 
L 4275 4200 
L 4275 3800 
L 3900 3650 
L 3900 4200 
L 2550 4200 
L 2550 3725 
L 2175 3575 
z
" transform="scale(0.015625)"/>
      <path id="SimSun-82d3" d="M 3525 3700 
Q 3375 3650 3225 3525 
Q 3825 2975 4637 2612 
Q 5450 2250 6125 2250 
L 6125 2150 
Q 5675 2050 5625 1800 
Q 5000 2000 4337 2425 
Q 3675 2850 3125 3425 
Q 2425 2725 1662 2287 
Q 900 1850 275 1675 
L 250 1750 
Q 1175 2175 1950 2812 
Q 2725 3450 3050 4050 
L 3525 3700 
z
M 2675 2750 
L 2750 2800 
Q 3200 2575 3375 2425 
Q 3550 2275 3550 2150 
Q 3550 2050 3437 1887 
Q 3325 1725 3275 1725 
Q 3200 1725 3150 1950 
Q 3050 2275 2675 2750 
z
M 3125 500 
Q 3750 975 4250 1425 
L 2000 1425 
Q 1675 1425 1400 1350 
L 1175 1575 
L 4300 1575 
L 4575 1850 
L 5025 1375 
Q 4675 1325 4175 1012 
Q 3675 700 3275 425 
Q 3875 225 4112 62 
Q 4350 -100 4350 -362 
Q 4350 -625 4275 -625 
Q 4200 -625 4100 -525 
Q 3850 -300 3325 25 
Q 2800 350 1875 725 
L 1900 800 
Q 2600 650 3125 500 
z
M 2025 3450 
Q 2050 3900 2050 4250 
L 1125 4250 
Q 800 4250 525 4175 
L 300 4400 
L 2050 4400 
Q 2050 4725 2025 5225 
L 2625 4950 
L 2400 4800 
L 2400 4400 
L 3925 4400 
Q 3925 4725 3900 5225 
L 4500 4975 
L 4275 4800 
L 4275 4400 
L 5100 4400 
L 5525 4800 
L 6075 4250 
L 4275 4250 
Q 4275 3900 4300 3675 
L 3925 3500 
L 3925 4250 
L 2400 4250 
L 2400 3625 
L 2025 3450 
z
" transform="scale(0.015625)"/>
     </defs>
     <use xlink:href="#SimSun-832f"/>
     <use xlink:href="#SimSun-82d3" x="100"/>
    </g>
   </g>
   <g id="text_25">
    <!-- 人参 -->
    <g transform="translate(175.605107 351.309146) scale(0.1 -0.1)">
     <defs>
      <path id="SimSun-4eba" d="M 2775 5175 
L 3525 4850 
L 3275 4625 
Q 3425 3300 3787 2375 
Q 4150 1450 4762 812 
Q 5375 175 6125 50 
L 6125 -75 
Q 5625 -100 5425 -425 
Q 4750 50 4312 687 
Q 3875 1325 3600 2050 
Q 3325 2775 3200 4050 
Q 3100 2850 2850 2037 
Q 2600 1225 2000 562 
Q 1400 -100 350 -550 
L 300 -475 
Q 1350 175 1887 937 
Q 2425 1700 2612 2862 
Q 2800 4025 2775 5175 
z
" transform="scale(0.015625)"/>
     </defs>
     <use xlink:href="#SimSun-4eba"/>
     <use xlink:href="#SimSun-53c2" x="100"/>
    </g>
   </g>
   <g id="text_26">
    <!-- 枸杞子 -->
    <g transform="translate(96.713546 311.784503) scale(0.1 -0.1)">
     <defs>
      <path id="SimSun-67b8" d="M 3425 2725 
L 3425 1075 
L 4200 1075 
L 4200 2725 
L 3425 2725 
z
M 4525 2650 
Q 4525 950 4550 725 
L 4200 575 
L 4200 925 
L 3425 925 
L 3425 550 
L 3075 400 
Q 3100 975 3100 1737 
Q 3100 2500 3075 3100 
L 3425 2875 
L 4175 2875 
L 4375 3100 
L 4725 2800 
L 4525 2650 
z
M 4000 4875 
L 3775 4725 
Q 3575 4300 3425 3975 
L 5325 3975 
L 5525 4250 
L 5950 3925 
L 5725 3750 
Q 5725 600 5612 75 
Q 5500 -450 4950 -575 
Q 4950 -225 4125 -25 
L 4125 100 
Q 4700 0 4962 0 
Q 5225 0 5287 450 
Q 5350 900 5375 3825 
L 3375 3825 
Q 2925 2975 2450 2500 
L 2375 2550 
Q 3100 3600 3425 5200 
L 4000 4875 
z
M 1725 2675 
Q 1725 25 1750 -475 
L 1350 -625 
Q 1375 525 1375 2325 
Q 1050 1500 375 725 
L 300 775 
Q 1075 1975 1375 3475 
L 1150 3475 
Q 825 3475 550 3400 
L 325 3625 
L 1375 3625 
Q 1375 4475 1350 5225 
L 1950 4950 
L 1725 4775 
L 1725 3625 
L 2000 3625 
L 2300 3925 
L 2750 3475 
L 1725 3475 
L 1725 2825 
Q 2225 2575 2400 2425 
Q 2575 2275 2575 2100 
Q 2575 1975 2500 1812 
Q 2425 1650 2375 1650 
Q 2300 1650 2225 1900 
Q 2100 2275 1725 2675 
z
" transform="scale(0.015625)"/>
      <path id="SimSun-675e" d="M 2875 1775 
Q 2875 2125 2850 2975 
L 3225 2750 
L 5100 2750 
L 5100 4550 
L 3475 4550 
Q 3150 4550 2875 4475 
L 2650 4700 
L 5050 4700 
L 5275 4975 
L 5700 4650 
L 5475 4450 
Q 5475 2950 5500 2400 
L 5100 2225 
L 5100 2600 
L 3225 2600 
L 3225 375 
Q 3200 -75 3750 -25 
L 5025 -25 
Q 5400 -50 5462 312 
Q 5525 675 5525 1175 
L 5650 1175 
Q 5650 825 5700 475 
Q 5750 125 6025 50 
Q 5875 -350 5300 -325 
L 3375 -325 
Q 2875 -300 2875 225 
L 2875 1775 
z
M 1800 2825 
Q 1800 100 1825 -425 
L 1400 -625 
Q 1425 550 1425 2400 
Q 1075 1525 325 700 
L 275 775 
Q 1125 2050 1425 3625 
L 1125 3625 
Q 800 3625 525 3550 
L 300 3775 
L 1425 3775 
Q 1425 4675 1400 5225 
L 2050 4925 
L 1800 4725 
L 1800 3775 
L 2125 3775 
L 2450 4100 
L 2925 3625 
L 1800 3625 
L 1800 2975 
Q 2350 2700 2475 2550 
Q 2600 2400 2600 2250 
Q 2600 2150 2525 1987 
Q 2450 1825 2400 1825 
Q 2325 1825 2250 2075 
Q 2125 2450 1800 2825 
z
" transform="scale(0.015625)"/>
      <path id="SimSun-5b50" d="M 1075 4775 
L 4750 4775 
L 5075 5075 
L 5550 4525 
Q 5250 4525 4787 4262 
Q 4325 4000 3475 3400 
L 3700 3250 
L 3425 3100 
L 3425 2625 
L 5150 2625 
L 5550 3025 
L 6100 2475 
L 3425 2475 
L 3425 75 
Q 3425 -400 2775 -625 
Q 2775 -250 1950 -25 
L 1950 100 
Q 2625 25 2850 25 
Q 3075 25 3050 375 
L 3050 2475 
L 1100 2475 
Q 775 2475 500 2400 
L 275 2625 
L 3050 2625 
Q 3050 3175 3025 3700 
L 3375 3475 
L 4750 4625 
L 1900 4625 
Q 1575 4625 1300 4550 
L 1075 4775 
z
" transform="scale(0.015625)"/>
     </defs>
     <use xlink:href="#SimSun-67b8"/>
     <use xlink:href="#SimSun-675e" x="100"/>
     <use xlink:href="#SimSun-5b50" x="200"/>
    </g>
   </g>
   <g id="text_27">
    <!-- 补血活血 -->
    <g transform="translate(392.675344 91.100599) scale(0.1 -0.1)">
     <defs>
      <path id="SimSun-8865" d="M 3950 -600 
Q 3975 75 3975 2275 
Q 3975 4475 3950 5200 
L 4525 4950 
L 4325 4775 
L 4325 3125 
Q 5225 2650 5575 2350 
Q 5925 2050 5925 1825 
Q 5925 1750 5862 1600 
Q 5800 1450 5750 1450 
Q 5625 1450 5375 1875 
Q 5025 2450 4325 3000 
Q 4325 300 4350 -425 
L 3950 -600 
z
M 2050 2675 
L 2050 2175 
L 2150 2125 
Q 2625 2650 2825 3050 
L 3250 2675 
L 3000 2600 
Q 2575 2300 2275 2075 
Q 2825 1825 2975 1675 
Q 3125 1525 3125 1400 
Q 3125 1300 3050 1162 
Q 2975 1025 2950 1025 
Q 2875 1025 2725 1325 
Q 2500 1725 2050 2050 
Q 2050 75 2075 -450 
L 1675 -625 
Q 1700 -25 1700 2300 
Q 1175 1775 300 1275 
L 250 1350 
Q 1025 1875 1600 2600 
Q 2175 3325 2400 3825 
L 1325 3825 
Q 1000 3825 725 3750 
L 500 3975 
L 2425 3975 
L 2675 4225 
L 3075 3825 
L 2800 3725 
Q 2350 3075 2050 2675 
z
M 1400 5200 
Q 1875 4900 2000 4750 
Q 2125 4600 2125 4475 
Q 2125 4325 2037 4200 
Q 1950 4075 1900 4075 
Q 1825 4075 1775 4325 
Q 1675 4675 1325 5150 
L 1400 5200 
z
" transform="scale(0.015625)"/>
      <path id="SimSun-8840" d="M 1225 75 
Q 1225 3025 1200 3975 
L 1550 3750 
L 2350 3750 
Q 2675 4600 2775 5175 
L 3375 4850 
L 3125 4725 
Q 2725 4100 2525 3750 
L 4675 3750 
L 4875 4025 
L 5275 3725 
L 5050 3525 
L 5050 75 
L 5225 75 
L 5625 450 
L 6125 -75 
L 1050 -75 
Q 800 -75 525 -150 
L 300 75 
L 1225 75 
z
M 1550 3600 
L 1550 75 
L 2375 75 
L 2375 3600 
L 1550 3600 
z
M 2700 3600 
L 2700 75 
L 3550 75 
L 3550 3600 
L 2700 3600 
z
M 3875 3600 
L 3875 75 
L 4725 75 
L 4725 3600 
L 3875 3600 
z
" transform="scale(0.015625)"/>
      <path id="SimSun-6d3b" d="M 5350 1500 
Q 5350 1050 5350 525 
Q 5350 0 5375 -475 
L 5000 -625 
L 5000 100 
L 2825 100 
L 2825 -450 
L 2450 -625 
Q 2475 50 2475 700 
Q 2475 1350 2450 2000 
L 2825 1800 
L 3775 1800 
L 3775 2925 
L 2875 2925 
Q 2550 2925 2275 2850 
L 2050 3075 
L 3775 3075 
L 3775 4325 
Q 3025 4250 2300 4200 
L 2300 4300 
Q 3525 4500 4175 4662 
Q 4825 4825 5200 5050 
L 5575 4550 
Q 5300 4525 4950 4475 
Q 4600 4425 4100 4350 
L 4100 3075 
L 5425 3075 
L 5725 3375 
L 6150 2925 
L 4100 2925 
L 4100 1800 
L 4975 1800 
L 5225 2050 
L 5600 1650 
L 5350 1500 
z
M 2825 1650 
L 2825 250 
L 5000 250 
L 5000 1650 
L 2825 1650 
z
M 2100 3575 
Q 1475 1450 1387 1137 
Q 1300 825 1312 375 
Q 1325 -75 1350 -250 
Q 1350 -350 1225 -350 
Q 1125 -350 975 -300 
Q 825 -250 825 -75 
Q 825 50 900 300 
Q 975 550 975 700 
Q 975 875 862 975 
Q 750 1075 375 1175 
L 375 1275 
Q 825 1225 937 1237 
Q 1050 1250 1187 1462 
Q 1325 1675 2000 3600 
L 2100 3575 
z
M 400 3550 
Q 1275 3100 1275 2812 
Q 1275 2525 1137 2425 
Q 1000 2325 900 2675 
Q 775 3000 350 3475 
L 400 3550 
z
M 975 5000 
Q 1675 4650 1737 4475 
Q 1800 4300 1800 4225 
Q 1800 4100 1712 4000 
Q 1625 3900 1575 3900 
Q 1500 3900 1425 4150 
Q 1300 4475 925 4925 
L 975 5000 
z
" transform="scale(0.015625)"/>
     </defs>
     <use xlink:href="#SimSun-8865"/>
     <use xlink:href="#SimSun-8840" x="100"/>
     <use xlink:href="#SimSun-6d3b" x="200"/>
     <use xlink:href="#SimSun-8840" x="300"/>
    </g>
   </g>
   <g id="text_28">
    <!-- 益气固表 -->
    <g transform="translate(396.879154 141.612576) scale(0.1 -0.1)">
     <defs>
      <path id="SimSun-76ca" d="M 3900 1725 
L 3900 -75 
L 4725 -75 
L 4725 1725 
L 3900 1725 
z
M 1275 2100 
L 1625 1875 
L 4675 1875 
L 4875 2125 
L 5250 1800 
L 5050 1650 
L 5050 -75 
L 5300 -75 
L 5650 275 
L 6100 -225 
L 1125 -225 
Q 800 -225 525 -300 
L 300 -75 
L 1300 -75 
Q 1300 1475 1275 2100 
z
M 1625 1725 
L 1625 -75 
L 2450 -75 
L 2450 1725 
L 1625 1725 
z
M 2775 1725 
L 2775 -75 
L 3575 -75 
L 3575 1725 
L 2775 1725 
z
M 2475 3550 
L 2900 3150 
Q 2575 3025 2050 2675 
Q 1525 2300 725 2000 
L 675 2075 
Q 1875 2750 2475 3550 
z
M 3700 3450 
Q 4425 3200 4987 2950 
Q 5550 2700 5500 2362 
Q 5450 2025 5350 2025 
Q 5275 2025 5200 2125 
Q 4975 2375 4662 2650 
Q 4350 2925 3650 3375 
L 3700 3450 
z
M 1725 5000 
L 1775 5075 
Q 2375 4800 2587 4587 
Q 2800 4375 2800 4225 
Q 2800 4050 2600 3825 
L 3625 3825 
Q 4175 4800 4275 5225 
L 4825 4875 
Q 4475 4725 3775 3825 
L 4900 3825 
L 5275 4200 
L 5775 3675 
L 1550 3675 
Q 1225 3675 950 3600 
L 725 3825 
L 2425 3825 
Q 2325 4375 1725 5000 
z
" transform="scale(0.015625)"/>
      <path id="SimSun-6c14" d="M 1750 5225 
L 2350 4875 
L 2100 4775 
Q 1900 4450 1775 4250 
L 4800 4250 
L 5175 4625 
L 5700 4100 
L 1725 4100 
Q 1125 3075 350 2425 
L 275 2475 
Q 925 3250 1287 4012 
Q 1650 4775 1750 5225 
z
M 1700 3475 
L 4375 3475 
L 4675 3775 
L 5125 3325 
L 2575 3325 
Q 2150 3325 1925 3250 
L 1700 3475 
z
M 1075 2700 
L 4200 2700 
L 4425 2975 
L 4850 2650 
L 4600 2475 
Q 4600 1975 4650 1412 
Q 4700 850 4875 475 
Q 5050 100 5500 -75 
Q 5600 175 5725 900 
L 5825 875 
Q 5800 525 5812 112 
Q 5825 -300 5925 -500 
Q 5975 -600 5875 -600 
Q 5775 -600 5425 -487 
Q 5075 -375 4775 -25 
Q 4475 325 4362 937 
Q 4250 1550 4275 2550 
L 1900 2550 
Q 1575 2550 1300 2475 
L 1075 2700 
z
" transform="scale(0.015625)"/>
      <path id="SimSun-56fa" d="M 4350 2325 
Q 4350 1100 4375 625 
L 4025 475 
L 4025 1000 
L 2425 1000 
L 2425 625 
L 2075 450 
Q 2100 1050 2100 1625 
Q 2100 2200 2075 2775 
L 2400 2550 
L 3025 2550 
L 3025 3450 
L 2225 3450 
Q 1900 3450 1625 3375 
L 1400 3600 
L 3025 3600 
Q 3025 4075 3000 4650 
L 3550 4375 
L 3350 4225 
L 3350 3600 
L 4250 3600 
L 4550 3900 
L 5000 3450 
L 3350 3450 
L 3350 2550 
L 3975 2550 
L 4175 2775 
L 4550 2475 
L 4350 2325 
z
M 2425 2400 
L 2425 1150 
L 4025 1150 
L 4025 2400 
L 2425 2400 
z
M 800 -625 
Q 825 25 825 325 
L 825 4075 
Q 825 4500 800 5150 
L 1150 4925 
L 5125 4925 
L 5350 5175 
L 5750 4850 
L 5525 4675 
L 5525 725 
Q 5525 225 5550 -400 
L 5175 -575 
L 5175 -25 
L 1175 -25 
L 1175 -450 
L 800 -625 
z
M 1175 4775 
L 1175 125 
L 5175 125 
L 5175 4775 
L 1175 4775 
z
" transform="scale(0.015625)"/>
      <path id="SimSun-8868" d="M 2300 -25 
L 3600 525 
L 3650 425 
Q 2550 -225 2100 -600 
L 1800 -200 
Q 1925 -100 1925 200 
L 1925 1175 
Q 1225 675 250 375 
L 225 475 
Q 1125 875 1725 1375 
Q 2325 1875 2775 2500 
L 1150 2500 
Q 825 2500 550 2425 
L 325 2650 
L 2925 2650 
L 2925 3375 
L 1950 3375 
Q 1625 3375 1350 3300 
L 1125 3525 
L 2925 3525 
L 2925 4200 
L 1525 4200 
Q 1200 4200 925 4125 
L 700 4350 
L 2925 4350 
Q 2925 4825 2900 5225 
L 3475 4975 
L 3275 4800 
L 3275 4350 
L 4900 4350 
L 5250 4700 
L 5725 4200 
L 3275 4200 
L 3275 3525 
L 4550 3525 
L 4875 3850 
L 5325 3375 
L 3275 3375 
L 3275 2650 
L 5150 2650 
L 5525 3025 
L 6025 2500 
L 3250 2500 
Q 3500 1850 3875 1300 
Q 4600 1875 4925 2375 
L 5350 1950 
L 5100 1925 
Q 4450 1525 3950 1200 
Q 4350 725 4850 462 
Q 5350 200 6100 125 
L 6100 25 
Q 5700 -25 5525 -325 
Q 4800 -50 4162 550 
Q 3525 1150 3125 2375 
Q 2775 1900 2300 1450 
L 2300 -25 
z
" transform="scale(0.015625)"/>
     </defs>
     <use xlink:href="#SimSun-76ca"/>
     <use xlink:href="#SimSun-6c14" x="100"/>
     <use xlink:href="#SimSun-56fa" x="200"/>
     <use xlink:href="#SimSun-8868" x="300"/>
    </g>
   </g>
   <g id="text_29">
    <!-- 活血化瘀 -->
    <g transform="translate(492.087172 106.89953) scale(0.1 -0.1)">
     <defs>
      <path id="SimSun-5316" d="M 1375 -600 
Q 1400 200 1400 925 
L 1400 3125 
Q 850 2300 350 1775 
L 275 1850 
Q 825 2625 1300 3650 
Q 1775 4675 1900 5200 
L 2450 4875 
L 2200 4725 
Q 1875 4000 1600 3475 
L 1950 3275 
L 1750 3075 
L 1750 350 
Q 1750 75 1775 -400 
L 1375 -600 
z
M 3450 2125 
L 3450 3925 
Q 3450 4475 3425 5200 
L 4000 4925 
L 3800 4725 
L 3800 2400 
Q 4150 2725 4562 3225 
Q 4975 3725 5150 4025 
L 5600 3600 
L 5325 3525 
Q 4600 2700 3800 2000 
L 3800 425 
Q 3800 0 4225 0 
L 5300 0 
Q 5500 0 5550 325 
Q 5600 650 5600 1325 
L 5725 1325 
Q 5775 650 5850 425 
Q 5925 200 6125 125 
Q 5900 -325 5400 -325 
L 4075 -325 
Q 3450 -325 3450 250 
L 3450 1775 
Q 2800 1275 1950 925 
L 1925 1025 
Q 2800 1525 3450 2125 
z
" transform="scale(0.015625)"/>
      <path id="SimSun-7600" d="M 1650 3025 
L 3250 3025 
L 3550 3325 
L 3975 2875 
L 2625 2875 
Q 2600 2575 2575 2150 
L 3200 2150 
L 3400 2400 
L 3725 2100 
L 3525 1950 
Q 3425 325 3387 100 
Q 3350 -125 3225 -262 
Q 3100 -400 2850 -475 
Q 2850 -125 2275 0 
L 2275 100 
Q 2675 50 2837 37 
Q 3000 25 3062 175 
Q 3125 325 3225 2000 
L 2550 2000 
Q 2450 1075 2112 487 
Q 1775 -100 1225 -500 
L 1175 -425 
Q 1700 100 1975 850 
Q 2250 1600 2275 2900 
L 2275 2875 
Q 2075 2875 1850 2800 
L 1650 3025 
z
M 2350 4125 
Q 2700 3925 2837 3787 
Q 2975 3650 2975 3525 
Q 2975 3400 2887 3275 
Q 2800 3150 2750 3150 
Q 2675 3150 2650 3350 
Q 2575 3675 2300 4075 
L 2350 4125 
z
M 4550 4050 
L 5075 3775 
L 4875 3600 
Q 5025 3125 5350 2600 
Q 5675 2075 6125 1850 
L 6125 1775 
Q 5800 1800 5625 1600 
Q 5350 1950 5125 2450 
Q 4900 2950 4800 3475 
Q 4350 2100 3575 1375 
L 3525 1450 
Q 4300 2500 4550 4050 
z
M 4325 2000 
Q 4975 1775 5087 1637 
Q 5200 1500 5200 1400 
Q 5200 1325 5137 1187 
Q 5075 1050 5025 1050 
Q 4975 1050 4900 1225 
Q 4750 1500 4275 1925 
L 4325 2000 
z
M 4125 825 
Q 4775 600 5125 400 
Q 5475 200 5387 -87 
Q 5300 -375 5225 -375 
Q 5200 -375 5125 -275 
Q 4975 -25 4750 200 
Q 4525 425 4075 750 
L 4125 825 
z
M 1250 2500 
Q 1250 3900 1225 4600 
L 1575 4375 
L 5200 4375 
L 5550 4700 
L 6025 4225 
L 1575 4225 
Q 1575 3175 1575 2450 
Q 1575 1725 1450 1225 
Q 1325 725 1075 300 
Q 825 -125 375 -550 
L 325 -475 
Q 1225 650 1250 2350 
Q 725 1875 525 1550 
L 225 1925 
Q 525 2025 1250 2500 
z
M 3075 5250 
Q 3475 5125 3687 5000 
Q 3900 4875 3875 4712 
Q 3850 4550 3775 4475 
Q 3700 4400 3675 4400 
Q 3600 4400 3525 4600 
Q 3400 4850 3025 5200 
L 3075 5250 
z
M 400 4075 
Q 725 3825 850 3650 
Q 975 3475 975 3375 
Q 975 3225 862 3100 
Q 750 2975 725 2975 
Q 625 2975 600 3250 
Q 550 3650 350 4025 
L 400 4075 
z
" transform="scale(0.015625)"/>
     </defs>
     <use xlink:href="#SimSun-6d3b"/>
     <use xlink:href="#SimSun-8840" x="100"/>
     <use xlink:href="#SimSun-5316" x="200"/>
     <use xlink:href="#SimSun-7600" x="300"/>
    </g>
   </g>
   <g id="text_30">
    <!-- 益气健脾 -->
    <g transform="translate(436.008556 141.976652) scale(0.1 -0.1)">
     <defs>
      <path id="SimSun-5065" d="M 1450 3025 
L 1450 1050 
Q 1450 200 1475 -400 
L 1100 -575 
Q 1125 250 1125 975 
L 1125 2975 
Q 750 2425 300 2000 
L 250 2075 
Q 850 2850 1212 3800 
Q 1575 4750 1650 5200 
L 2150 4900 
L 1950 4775 
Q 1575 3850 1325 3325 
L 1600 3175 
L 1450 3025 
z
M 6100 -100 
Q 5750 -175 5700 -450 
Q 4225 -475 3625 -300 
Q 3025 -125 2600 325 
Q 2175 -225 1600 -600 
L 1550 -525 
Q 2200 75 2425 525 
Q 2150 950 1850 1925 
L 1950 1950 
Q 2275 1175 2550 825 
Q 2675 1200 2750 1650 
Q 2825 2100 2875 2550 
L 2425 2550 
L 2275 2300 
L 1950 2650 
Q 2125 2750 2275 3125 
Q 2425 3500 2650 4150 
L 2325 4150 
L 2100 4100 
L 1900 4300 
L 2625 4300 
L 2850 4525 
L 3175 4200 
L 2950 4025 
L 2450 2700 
L 2875 2700 
L 3050 2925 
L 3375 2625 
L 3175 2475 
Q 3125 2025 3012 1475 
Q 2900 925 2725 550 
Q 3175 100 3762 0 
Q 4350 -100 4775 -100 
Q 5350 -100 6100 0 
L 6100 -100 
z
M 4275 175 
Q 4300 900 4300 1100 
L 3625 1100 
L 3325 1050 
L 3125 1250 
L 4300 1250 
L 4300 1875 
L 3925 1875 
L 3575 1825 
L 3375 2025 
L 4300 2025 
L 4300 2650 
L 4025 2650 
L 3725 2600 
L 3525 2800 
L 4300 2800 
L 4300 3425 
L 3700 3425 
L 3350 3375 
L 3150 3575 
L 4300 3575 
L 4300 4150 
L 4000 4150 
L 3650 4100 
L 3450 4300 
L 4300 4300 
Q 4300 4525 4275 5125 
L 4775 4875 
L 4600 4700 
L 4600 4300 
L 5125 4300 
L 5350 4525 
L 5675 4200 
L 5475 4075 
L 5475 3575 
L 5550 3575 
L 5775 3800 
L 6150 3425 
L 5475 3425 
Q 5475 3075 5500 2600 
L 5175 2450 
L 5175 2650 
L 4600 2650 
L 4600 2025 
L 5100 2025 
L 5350 2275 
L 5750 1875 
L 4600 1875 
L 4600 1250 
L 5350 1250 
L 5600 1500 
L 6000 1100 
L 4600 1100 
Q 4600 625 4625 325 
L 4275 175 
z
M 4600 3425 
L 4600 2800 
L 5175 2800 
L 5175 3425 
L 4600 3425 
z
M 4600 4150 
L 4600 3575 
L 5175 3575 
L 5175 4150 
L 4600 4150 
z
" transform="scale(0.015625)"/>
      <path id="SimSun-813e" d="M 5575 2800 
Q 5575 2300 5600 1975 
L 5250 1825 
L 5250 2125 
L 4100 2125 
Q 3625 1400 2725 1000 
L 2675 1050 
Q 3400 1575 3750 2125 
L 3225 2125 
L 3225 1975 
L 2875 1825 
Q 2900 2600 2900 3437 
Q 2900 4275 2875 4575 
L 3225 4375 
L 3675 4375 
Q 3825 4775 3900 5225 
L 4375 5000 
Q 4200 4925 4075 4725 
Q 3925 4525 3800 4375 
L 5200 4375 
L 5350 4600 
L 5750 4325 
L 5575 4175 
L 5575 2800 
z
M 4025 3250 
Q 4075 3850 4075 4225 
L 3225 4225 
L 3225 3250 
L 4025 3250 
z
M 4400 4225 
Q 4400 3900 4350 3250 
L 5250 3250 
L 5250 4225 
L 4400 4225 
z
M 3225 3100 
L 3225 2275 
L 3800 2275 
Q 3950 2625 4000 3100 
L 3225 3100 
z
M 4325 3100 
Q 4275 2725 4150 2275 
L 5250 2275 
L 5250 3100 
L 4325 3100 
z
M 4050 -650 
Q 4075 -100 4075 800 
L 3250 800 
Q 2925 800 2650 725 
L 2425 950 
L 4075 950 
L 4075 1925 
L 4575 1700 
L 4400 1550 
L 4400 950 
L 5325 950 
L 5675 1300 
L 6100 800 
L 4400 800 
L 4400 275 
Q 4400 -200 4425 -450 
L 4050 -650 
z
M 1225 0 
Q 1825 -50 1937 -50 
Q 2050 -50 2050 200 
L 2050 1850 
L 1175 1850 
Q 1175 1200 1000 575 
Q 825 -50 325 -650 
L 250 -600 
Q 575 25 675 425 
Q 775 825 812 1212 
Q 850 1600 850 2937 
Q 850 4275 825 4925 
L 1175 4725 
L 2025 4725 
L 2200 4950 
L 2550 4675 
L 2375 4500 
L 2375 125 
Q 2400 -450 1875 -600 
Q 1850 -300 1225 -100 
L 1225 0 
z
M 1175 4575 
L 1175 3400 
L 2050 3400 
L 2050 4575 
L 1175 4575 
z
M 1175 3250 
L 1175 2000 
L 2050 2000 
L 2050 3250 
L 1175 3250 
z
" transform="scale(0.015625)"/>
     </defs>
     <use xlink:href="#SimSun-76ca"/>
     <use xlink:href="#SimSun-6c14" x="100"/>
     <use xlink:href="#SimSun-5065" x="200"/>
     <use xlink:href="#SimSun-813e" x="300"/>
    </g>
   </g>
   <g id="text_31">
    <!-- 利水消肿 -->
    <g transform="translate(411.464809 97.049067) scale(0.1 -0.1)">
     <defs>
      <path id="SimSun-5229" d="M 2000 -575 
Q 2025 375 2025 700 
L 2025 2325 
Q 1300 1200 350 500 
L 275 575 
Q 1575 1900 2000 3175 
L 1100 3175 
Q 775 3175 500 3100 
L 275 3325 
L 2025 3325 
L 2025 4550 
Q 1325 4475 600 4425 
L 600 4525 
Q 1550 4650 2200 4825 
Q 2850 5000 3100 5225 
L 3550 4750 
Q 3275 4750 2375 4600 
L 2375 3325 
L 3050 3325 
L 3375 3650 
L 3850 3175 
L 2375 3175 
L 2375 2575 
Q 3450 2150 3500 1987 
Q 3550 1825 3550 1725 
Q 3550 1600 3487 1500 
Q 3425 1400 3400 1400 
Q 3325 1400 3175 1650 
Q 2950 2000 2375 2450 
L 2375 425 
Q 2375 -75 2400 -400 
L 2000 -575 
z
M 4425 3950 
L 4425 1875 
Q 4425 1450 4450 1075 
L 4075 900 
Q 4100 1800 4100 2825 
Q 4100 3850 4075 4425 
L 4625 4125 
L 4425 3950 
z
M 5375 4225 
Q 5375 4725 5350 5250 
L 5925 5000 
L 5725 4825 
L 5725 175 
Q 5775 -375 5150 -575 
Q 5150 -125 4175 50 
L 4175 150 
Q 4850 100 5112 87 
Q 5375 75 5375 425 
L 5375 4225 
z
" transform="scale(0.015625)"/>
      <path id="SimSun-6c34" d="M 2950 5200 
L 3600 4925 
L 3350 4725 
Q 3325 4150 3450 3750 
Q 3575 3350 3850 2775 
Q 4825 3575 5175 4150 
L 5600 3700 
Q 5350 3675 4975 3400 
Q 4575 3125 3900 2650 
Q 4875 775 6100 375 
L 6100 275 
Q 5625 250 5525 -25 
Q 4000 1100 3350 3625 
L 3350 125 
Q 3375 -500 2750 -650 
Q 2775 -300 1975 -100 
L 1975 0 
Q 2550 -50 2762 -50 
Q 2975 -50 2975 250 
L 2975 4275 
Q 2975 4750 2950 5200 
z
M 375 -150 
L 325 -75 
Q 1575 1175 2050 3125 
L 1275 3125 
Q 950 3125 675 3050 
L 450 3275 
L 2025 3275 
L 2250 3575 
L 2700 3175 
L 2450 3050 
Q 1825 825 375 -150 
z
" transform="scale(0.015625)"/>
      <path id="SimSun-6d88" d="M 3900 3350 
Q 3900 4900 3875 5225 
L 4450 4950 
L 4250 4800 
L 4250 3350 
L 5050 3350 
L 5250 3600 
L 5650 3275 
L 5450 3100 
L 5450 125 
Q 5450 -400 4900 -600 
Q 4850 -200 4100 -75 
L 4100 25 
Q 4625 0 4875 -25 
Q 5100 -25 5100 250 
L 5100 1250 
L 3050 1250 
L 3050 -400 
L 2675 -575 
Q 2700 125 2700 1650 
Q 2700 3175 2675 3575 
L 3050 3350 
L 3900 3350 
z
M 2525 4850 
Q 3200 4500 3312 4337 
Q 3425 4175 3425 4075 
Q 3425 3950 3337 3800 
Q 3250 3650 3200 3650 
Q 3125 3650 3050 3875 
Q 2925 4225 2475 4800 
L 2525 4850 
z
M 5325 4950 
L 5775 4575 
Q 5600 4550 5300 4225 
Q 4975 3900 4575 3550 
L 4500 3600 
Q 5175 4525 5325 4950 
z
M 3050 2250 
L 3050 1400 
L 5100 1400 
L 5100 2250 
L 3050 2250 
z
M 3050 3200 
L 3050 2400 
L 5100 2400 
L 5100 3200 
L 3050 3200 
z
M 2525 4000 
Q 1675 1400 1600 1075 
Q 1525 750 1525 300 
Q 1525 -150 1550 -375 
Q 1550 -500 1450 -500 
Q 1400 -500 1237 -412 
Q 1075 -325 1075 -125 
Q 1075 50 1125 225 
Q 1175 425 1175 600 
Q 1175 800 1050 900 
Q 925 1000 450 1100 
L 450 1200 
Q 1000 1150 1100 1162 
Q 1200 1175 1350 1387 
Q 1500 1600 2425 4025 
L 2525 4000 
z
M 425 3550 
Q 1275 3175 1287 2925 
Q 1300 2675 1225 2562 
Q 1150 2450 1100 2450 
Q 1000 2450 925 2675 
Q 775 3000 375 3475 
L 425 3550 
z
M 1025 4950 
Q 1725 4625 1787 4475 
Q 1850 4325 1850 4250 
Q 1850 4125 1750 3987 
Q 1650 3850 1625 3850 
Q 1550 3850 1475 4075 
Q 1350 4425 975 4875 
L 1025 4950 
z
" transform="scale(0.015625)"/>
      <path id="SimSun-80bf" d="M 1150 4625 
L 1150 3425 
L 2025 3425 
L 2025 4625 
L 1150 4625 
z
M 1150 3275 
L 1150 2100 
L 2025 2100 
L 2025 3275 
L 1150 3275 
z
M 800 5000 
L 1150 4775 
L 2000 4775 
L 2175 5025 
L 2550 4750 
L 2350 4575 
L 2350 225 
Q 2375 -325 1900 -475 
Q 1875 -150 1300 0 
L 1300 100 
Q 1775 50 1900 62 
Q 2025 75 2025 325 
L 2025 1950 
L 1150 1950 
Q 1125 1225 962 625 
Q 800 25 300 -575 
L 225 -525 
Q 550 50 662 587 
Q 775 1125 800 1550 
Q 825 1975 825 3325 
Q 825 4675 800 5000 
z
M 5650 2275 
Q 5650 1950 5675 1750 
L 5300 1600 
L 5300 2000 
L 4425 2000 
L 4425 400 
Q 4425 -250 4450 -450 
L 4050 -600 
Q 4075 100 4075 2000 
L 3175 2000 
L 3175 1675 
L 2800 1525 
Q 2825 2200 2825 2912 
Q 2825 3625 2800 4000 
L 3150 3775 
L 4075 3775 
L 4075 4375 
Q 4075 4750 4050 5225 
L 4600 5000 
L 4425 4825 
L 4425 3775 
L 5300 3775 
L 5450 4025 
L 5825 3750 
L 5650 3575 
L 5650 2275 
z
M 3175 3625 
L 3175 2150 
L 4075 2150 
L 4075 3625 
L 3175 3625 
z
M 4425 3625 
L 4425 2150 
L 5300 2150 
L 5300 3625 
L 4425 3625 
z
" transform="scale(0.015625)"/>
     </defs>
     <use xlink:href="#SimSun-5229"/>
     <use xlink:href="#SimSun-6c34" x="100"/>
     <use xlink:href="#SimSun-6d88" x="200"/>
     <use xlink:href="#SimSun-80bf" x="300"/>
    </g>
   </g>
   <g id="text_32">
    <!-- 滋补肝肾 -->
    <g transform="translate(387.133648 89.302798) scale(0.1 -0.1)">
     <defs>
      <path id="SimSun-6ecb" d="M 2725 5100 
L 2775 5150 
Q 3175 4900 3350 4725 
Q 3525 4550 3525 4400 
Q 3525 4350 3487 4250 
Q 3450 4150 3362 4075 
Q 3275 4000 3250 4000 
Q 3150 4000 3100 4275 
Q 3025 4625 2725 5100 
z
M 4725 5225 
L 5250 4950 
Q 4975 4750 4825 4550 
Q 4675 4350 4375 3900 
L 5300 3900 
L 5650 4250 
L 6100 3750 
L 2925 3750 
Q 2600 3750 2325 3675 
L 2100 3900 
L 4225 3900 
Q 4675 4800 4725 5225 
z
M 2250 1900 
Q 2450 1900 3025 1900 
Q 3350 2500 3475 3025 
L 3950 2725 
Q 3750 2575 3600 2300 
Q 3450 2025 2300 0 
Q 2525 25 3300 100 
Q 3200 500 3050 850 
L 3125 900 
Q 3550 425 3675 187 
Q 3800 -50 3775 -225 
Q 3750 -400 3637 -475 
Q 3525 -550 3475 -550 
Q 3425 -550 3400 -450 
Q 3375 -275 3325 0 
Q 2225 -250 2075 -450 
L 1825 75 
Q 2100 100 2400 625 
Q 2700 1150 2975 1775 
Q 2300 1675 2100 1500 
L 1875 1925 
Q 2100 1950 2387 2612 
Q 2675 3275 2725 3700 
L 3225 3425 
Q 3025 3300 2800 2875 
Q 2550 2425 2250 1900 
z
M 4300 1850 
Q 4450 1850 5075 1875 
Q 5350 2450 5500 2975 
L 5975 2675 
Q 5825 2575 5637 2262 
Q 5450 1950 4350 50 
Q 4650 75 5500 150 
Q 5450 525 5225 1025 
L 5300 1075 
Q 5750 575 5862 312 
Q 5975 50 5975 -75 
Q 5975 -250 5837 -362 
Q 5700 -475 5675 -475 
Q 5600 -475 5575 -350 
Q 5550 -225 5525 25 
Q 4425 -175 4200 -425 
L 3900 75 
Q 4200 150 4537 800 
Q 4875 1450 5000 1725 
Q 4275 1625 4125 1425 
L 3875 1900 
Q 4100 1900 4375 2550 
Q 4650 3200 4750 3700 
L 5225 3425 
Q 5025 3275 4800 2837 
Q 4575 2400 4300 1850 
z
M 2150 4075 
Q 1375 1450 1312 1137 
Q 1250 825 1250 375 
Q 1250 -75 1250 -225 
Q 1250 -375 1150 -375 
Q 1100 -375 937 -287 
Q 775 -200 775 0 
Q 775 175 825 325 
Q 900 575 900 725 
Q 900 875 787 975 
Q 675 1075 300 1175 
L 300 1250 
Q 725 1225 825 1237 
Q 925 1250 1087 1462 
Q 1250 1675 2050 4100 
L 2150 4075 
z
M 350 3575 
Q 1175 3200 1187 2950 
Q 1200 2700 1100 2587 
Q 1000 2475 975 2475 
Q 900 2475 825 2700 
Q 700 3025 300 3525 
L 350 3575 
z
M 925 5025 
Q 1625 4700 1687 4562 
Q 1750 4425 1750 4350 
Q 1750 4225 1650 4087 
Q 1550 3950 1525 3950 
Q 1450 3950 1375 4175 
Q 1250 4500 875 4975 
L 925 5025 
z
" transform="scale(0.015625)"/>
      <path id="SimSun-809d" d="M 4575 2350 
L 4575 375 
Q 4575 25 4600 -350 
L 4175 -575 
Q 4200 725 4200 2350 
L 3450 2350 
Q 3125 2350 2850 2275 
L 2625 2500 
L 4200 2500 
L 4200 4625 
L 3775 4625 
Q 3450 4625 3175 4550 
L 2950 4775 
L 5250 4775 
L 5500 5025 
L 5875 4625 
L 4575 4625 
L 4575 2500 
L 5450 2500 
L 5725 2775 
L 6125 2350 
L 4575 2350 
z
M 1250 4575 
L 1250 3400 
L 2225 3400 
L 2225 4575 
L 1250 4575 
z
M 1250 3250 
L 1250 2100 
L 2250 2100 
L 2250 3250 
L 1250 3250 
z
M 1400 225 
Q 1975 175 2100 187 
Q 2225 200 2225 400 
L 2225 1950 
L 1250 1950 
Q 1225 1200 1000 587 
Q 775 -25 325 -500 
L 275 -450 
Q 650 200 762 662 
Q 875 1125 900 1612 
Q 925 2100 925 3350 
Q 925 4600 900 4975 
L 1275 4725 
L 2175 4725 
L 2400 4950 
L 2725 4625 
L 2550 4500 
L 2550 300 
Q 2550 25 2450 -100 
Q 2350 -225 2050 -375 
Q 1975 -25 1400 125 
L 1400 225 
z
" transform="scale(0.015625)"/>
      <path id="SimSun-80be" d="M 800 4850 
L 1325 4650 
L 1150 4475 
Q 1150 3700 1150 3487 
Q 1150 3275 1175 2975 
L 800 2800 
Q 825 3550 825 4050 
Q 825 4550 800 4850 
z
M 1925 5200 
L 2475 4975 
L 2275 4800 
Q 2275 3800 2275 3437 
Q 2275 3075 2300 2875 
L 1925 2700 
Q 1950 3375 1950 4112 
Q 1950 4850 1925 5200 
z
M 3375 4625 
Q 3650 4150 4150 3725 
Q 4600 4150 4900 4625 
L 3375 4625 
z
M 2800 4775 
L 4900 4775 
L 5125 5025 
L 5550 4600 
L 5275 4500 
Q 4900 4050 4375 3550 
Q 4750 3300 5137 3212 
Q 5525 3125 6000 3100 
L 6000 3000 
Q 5625 2950 5575 2675 
Q 4775 2900 4150 3350 
Q 3225 2775 2425 2625 
L 2400 2700 
Q 3300 3025 3950 3550 
Q 3525 4050 3250 4625 
L 3000 4550 
L 2800 4775 
z
M 1875 2375 
L 1875 1725 
L 4425 1725 
L 4425 2375 
L 1875 2375 
z
M 1875 1575 
L 1875 975 
L 4425 975 
L 4425 1575 
L 1875 1575 
z
M 1500 -650 
Q 1525 -75 1525 1187 
Q 1525 2450 1500 2725 
L 1875 2525 
L 4400 2525 
L 4550 2775 
L 4975 2475 
L 4775 2300 
L 4775 125 
Q 4775 -450 4200 -625 
Q 4200 -300 3400 -100 
L 3400 0 
Q 4050 -50 4250 -50 
Q 4450 -50 4425 250 
L 4425 825 
L 1875 825 
L 1875 -500 
L 1500 -650 
z
" transform="scale(0.015625)"/>
     </defs>
     <use xlink:href="#SimSun-6ecb"/>
     <use xlink:href="#SimSun-8865" x="100"/>
     <use xlink:href="#SimSun-809d" x="200"/>
     <use xlink:href="#SimSun-80be" x="300"/>
    </g>
   </g>
   <g id="text_33">
    <!-- 血虚证 -->
    <g transform="translate(141.808382 108.828011) scale(0.1 -0.1)">
     <defs>
      <path id="SimSun-865a" d="M 1625 1675 
Q 2175 1125 2287 912 
Q 2400 700 2400 600 
Q 2400 475 2300 350 
Q 2200 225 2150 225 
Q 2100 225 2075 325 
Q 2025 500 1937 775 
Q 1850 1050 1575 1625 
L 1625 1675 
z
M 1150 -100 
L 2775 -100 
Q 2775 1550 2750 1925 
L 3325 1650 
L 3100 1500 
L 3100 -100 
L 3900 -100 
Q 3900 1500 3875 1875 
L 4450 1575 
L 4225 1450 
L 4225 450 
Q 4500 700 4787 1025 
Q 5075 1350 5275 1725 
L 5700 1325 
L 5475 1275 
Q 4875 725 4225 300 
L 4225 -100 
L 5150 -100 
L 5525 275 
L 6050 -250 
L 1850 -250 
Q 1650 -250 1375 -325 
L 1150 -100 
z
M 5125 3175 
L 5400 3725 
L 1450 3725 
Q 1450 2275 1425 1675 
Q 1400 1075 1150 500 
Q 900 -75 350 -650 
L 275 -575 
Q 650 -100 862 550 
Q 1075 1200 1100 2100 
Q 1125 3000 1075 4100 
L 1475 3875 
L 2900 3875 
Q 2900 4900 2875 5250 
L 3475 4975 
L 3225 4800 
L 3225 4525 
L 4600 4525 
L 4875 4800 
L 5300 4375 
L 3225 4375 
L 3225 3875 
L 5375 3875 
L 5600 4150 
L 6050 3700 
Q 5675 3700 5200 3125 
L 5125 3175 
z
M 3250 2575 
Q 3250 2350 3525 2325 
L 4950 2325 
Q 5075 2350 5137 2450 
Q 5200 2550 5250 2925 
L 5350 2925 
Q 5350 2675 5375 2537 
Q 5400 2400 5600 2325 
Q 5450 2075 5125 2075 
L 3350 2075 
Q 2925 2075 2925 2425 
L 2925 2800 
L 2025 2725 
L 1800 2650 
L 1525 2850 
L 2925 2950 
Q 2925 3450 2900 3700 
L 3450 3475 
L 3250 3300 
L 3250 2975 
L 4275 3075 
L 4525 3350 
L 5000 2975 
L 3250 2825 
L 3250 2575 
z
" transform="scale(0.015625)"/>
      <path id="SimSun-8bc1" d="M 825 4775 
L 875 4825 
Q 1325 4575 1500 4400 
Q 1675 4225 1637 4062 
Q 1600 3900 1512 3825 
Q 1425 3750 1400 3750 
Q 1300 3750 1275 3975 
Q 1200 4250 825 4775 
z
M 1475 475 
L 2300 1275 
L 2375 1225 
Q 1975 675 1775 400 
Q 1550 125 1400 -225 
L 1050 150 
Q 1175 275 1150 600 
L 1150 2800 
L 925 2800 
Q 750 2800 475 2725 
L 250 2950 
L 1100 2950 
L 1275 3200 
L 1700 2900 
L 1475 2725 
L 1475 475 
z
M 2175 4550 
L 5125 4550 
L 5525 4925 
L 6000 4400 
L 4250 4400 
L 4250 2400 
L 5000 2400 
L 5375 2750 
L 5850 2250 
L 4250 2250 
L 4250 -50 
L 5325 -50 
L 5700 300 
L 6125 -200 
L 2475 -200 
Q 2300 -200 2025 -275 
L 1800 -50 
L 2725 -50 
L 2725 2550 
L 2725 3250 
L 3275 2950 
L 3050 2775 
L 3050 -50 
L 3925 -50 
L 3925 4400 
L 2875 4400 
Q 2675 4400 2400 4325 
L 2175 4550 
z
" transform="scale(0.015625)"/>
     </defs>
     <use xlink:href="#SimSun-8840"/>
     <use xlink:href="#SimSun-865a" x="100"/>
     <use xlink:href="#SimSun-8bc1" x="200"/>
    </g>
   </g>
   <g id="text_34">
    <!-- 气虚证 -->
    <g transform="translate(141.765548 46.103968) scale(0.1 -0.1)">
     <use xlink:href="#SimSun-6c14"/>
     <use xlink:href="#SimSun-865a" x="100"/>
     <use xlink:href="#SimSun-8bc1" x="200"/>
    </g>
   </g>
   <g id="text_35">
    <!-- 血瘀证 -->
    <g transform="translate(165.358626 131.23861) scale(0.1 -0.1)">
     <use xlink:href="#SimSun-8840"/>
     <use xlink:href="#SimSun-7600" x="100"/>
     <use xlink:href="#SimSun-8bc1" x="200"/>
    </g>
   </g>
   <g id="text_36">
    <!-- 脾胃虚弱 -->
    <g transform="translate(198.892276 136.011221) scale(0.1 -0.1)">
     <defs>
      <path id="SimSun-80c3" d="M 1225 5125 
L 1575 4925 
L 4850 4925 
L 5025 5150 
L 5400 4875 
L 5200 4725 
Q 5200 4375 5200 3800 
Q 5200 3225 5225 3050 
L 4875 2875 
L 4875 3125 
L 1575 3125 
L 1575 2950 
L 1225 2800 
Q 1250 3175 1250 4050 
Q 1250 4925 1225 5125 
z
M 1825 2300 
L 1825 1650 
L 4675 1650 
L 4675 2300 
L 1825 2300 
z
M 1825 1500 
L 1825 825 
L 4675 825 
L 4675 1500 
L 1825 1500 
z
M 3750 -50 
Q 4350 -125 4525 -112 
Q 4700 -100 4675 225 
L 4675 675 
L 1825 675 
L 1825 -500 
L 1450 -675 
Q 1475 50 1475 1212 
Q 1475 2375 1450 2700 
L 1825 2450 
L 4650 2450 
L 4825 2700 
L 5225 2425 
L 5025 2250 
L 5025 75 
Q 5050 -475 4475 -650 
Q 4475 -275 3750 -150 
L 3750 -50 
z
M 1575 4775 
L 1575 4050 
L 3100 4050 
L 3100 4775 
L 1575 4775 
z
M 3425 4775 
L 3425 4050 
L 4875 4050 
L 4875 4775 
L 3425 4775 
z
M 1575 3900 
L 1575 3275 
L 3100 3275 
L 3100 3900 
L 1575 3900 
z
M 3425 3900 
L 3425 3275 
L 4875 3275 
L 4875 3900 
L 3425 3900 
z
" transform="scale(0.015625)"/>
      <path id="SimSun-5f31" d="M 1275 50 
Q 1725 -75 1975 -75 
Q 2100 -75 2212 -12 
Q 2325 50 2362 612 
Q 2400 1175 2425 2450 
L 1150 2450 
L 975 2275 
L 650 2600 
Q 825 2675 887 3012 
Q 950 3350 1000 3950 
L 1300 3700 
L 2450 3700 
L 2450 4650 
L 1450 4650 
Q 1125 4650 850 4575 
L 625 4800 
L 2400 4800 
L 2575 5050 
L 2975 4775 
L 2775 4575 
Q 2775 3700 2800 3425 
L 2450 3275 
L 2450 3550 
L 1300 3550 
L 1150 2600 
L 2375 2600 
L 2550 2850 
L 2975 2550 
L 2775 2375 
Q 2750 1375 2712 725 
Q 2675 75 2512 -212 
Q 2350 -500 1900 -600 
Q 1925 -300 1250 -50 
L 1275 50 
z
M 3925 3625 
L 3750 2600 
L 5275 2600 
L 5425 2875 
L 5850 2600 
L 5675 2425 
Q 5675 1300 5650 637 
Q 5625 -25 5437 -250 
Q 5250 -475 4825 -575 
Q 4850 -275 4175 -25 
L 4175 75 
Q 4675 -25 4912 -37 
Q 5150 -50 5200 125 
Q 5250 300 5287 762 
Q 5325 1225 5325 2450 
L 3750 2450 
L 3575 2250 
L 3225 2500 
Q 3400 2600 3475 3000 
Q 3550 3400 3600 4000 
L 3925 3775 
L 5200 3775 
L 5200 4725 
L 4050 4725 
Q 3725 4725 3450 4650 
L 3225 4875 
L 5150 4875 
L 5300 5125 
L 5700 4850 
L 5525 4675 
Q 5525 3925 5550 3500 
L 5200 3350 
L 5200 3625 
L 3925 3625 
z
M 3700 2125 
L 3750 2175 
Q 3950 2075 4162 1950 
Q 4375 1825 4450 1700 
Q 4525 1575 4525 1525 
Q 4525 1425 4425 1287 
Q 4325 1150 4300 1150 
Q 4225 1150 4150 1375 
Q 4025 1725 3700 2125 
z
M 3125 450 
Q 3675 600 5125 1275 
L 5175 1175 
Q 4700 925 4137 575 
Q 3575 225 3425 0 
L 3125 450 
z
M 350 400 
Q 975 600 2300 1200 
L 2325 1100 
Q 1850 825 1312 487 
Q 775 150 650 -50 
L 350 400 
z
M 1025 2125 
L 1075 2175 
Q 1450 1975 1612 1837 
Q 1775 1700 1787 1575 
Q 1800 1450 1712 1325 
Q 1625 1200 1575 1200 
Q 1475 1200 1425 1400 
Q 1325 1725 1025 2125 
z
" transform="scale(0.015625)"/>
     </defs>
     <use xlink:href="#SimSun-813e"/>
     <use xlink:href="#SimSun-80c3" x="100"/>
     <use xlink:href="#SimSun-865a" x="200"/>
     <use xlink:href="#SimSun-5f31" x="300"/>
    </g>
   </g>
   <g id="text_37">
    <!-- 水肿 -->
    <g transform="translate(174.277519 157.626328) scale(0.1 -0.1)">
     <use xlink:href="#SimSun-6c34"/>
     <use xlink:href="#SimSun-80bf" x="100"/>
    </g>
   </g>
   <g id="text_38">
    <!-- 肝肾亏虚 -->
    <g transform="translate(112.626458 94.534846) scale(0.1 -0.1)">
     <defs>
      <path id="SimSun-4e8f" d="M 1150 4650 
L 4425 4650 
L 4775 5000 
L 5275 4500 
L 1950 4500 
Q 1650 4500 1375 4425 
L 1150 4650 
z
M 2000 2175 
L 2350 3200 
L 1100 3200 
Q 775 3200 500 3125 
L 275 3350 
L 5150 3350 
L 5550 3750 
L 6100 3200 
L 2750 3200 
L 2350 2100 
L 4500 2100 
L 4750 2375 
L 5175 2000 
L 4925 1850 
Q 4575 450 4312 25 
Q 4050 -400 3450 -525 
Q 3500 -150 2550 200 
L 2575 325 
Q 3275 125 3550 75 
Q 3825 25 4012 350 
Q 4200 675 4550 1950 
L 2350 1950 
L 2150 1700 
L 1800 2025 
L 2000 2175 
z
" transform="scale(0.015625)"/>
     </defs>
     <use xlink:href="#SimSun-809d"/>
     <use xlink:href="#SimSun-80be" x="100"/>
     <use xlink:href="#SimSun-4e8f" x="200"/>
     <use xlink:href="#SimSun-865a" x="300"/>
    </g>
   </g>
   <g id="legend_1">
    <g id="patch_10">
     <path d="M 33.2 63.274219 
L 95.2 63.274219 
Q 97.2 63.274219 97.2 61.274219 
L 97.2 19.774219 
Q 97.2 17.774219 95.2 17.774219 
L 33.2 17.774219 
Q 31.2 17.774219 31.2 19.774219 
L 31.2 61.274219 
Q 31.2 63.274219 33.2 63.274219 
z
" style="fill: #4d4d4d; opacity: 0.5; stroke: #4d4d4d; stroke-linejoin: miter"/>
    </g>
    <g id="patch_11">
     <path d="M 31.2 61.274219 
L 93.2 61.274219 
Q 95.2 61.274219 95.2 59.274219 
L 95.2 17.774219 
Q 95.2 15.774219 93.2 15.774219 
L 31.2 15.774219 
Q 29.2 15.774219 29.2 17.774219 
L 29.2 59.274219 
Q 29.2 61.274219 31.2 61.274219 
z
" style="fill: #ffffff; stroke: #cccccc; stroke-linejoin: miter"/>
    </g>
    <g id="patch_12">
     <path d="M 33.2 27.742969 
L 53.2 27.742969 
L 53.2 20.742969 
L 33.2 20.742969 
z
" style="fill: #27ae60; stroke: #27ae60; stroke-linejoin: miter"/>
    </g>
    <g id="text_39">
     <!-- 药材 -->
     <g transform="translate(61.2 27.742969) scale(0.1 -0.1)">
      <defs>
       <path id="SimSun-836f" d="M 500 -25 
Q 850 0 1537 100 
Q 2225 200 3050 350 
L 3075 275 
Q 2325 50 1600 -150 
Q 850 -350 750 -500 
L 500 -25 
z
M 1300 1150 
Q 1675 1175 2850 1300 
L 2875 1225 
Q 2275 1100 1737 937 
Q 1200 775 1000 600 
L 700 1100 
Q 975 1125 1287 1437 
Q 1600 1750 1975 2250 
Q 975 2125 775 1900 
L 500 2350 
Q 800 2375 1187 2887 
Q 1575 3400 1750 3900 
L 2225 3550 
Q 2025 3500 1725 3125 
Q 1400 2750 950 2325 
Q 1225 2350 2050 2375 
Q 2400 2825 2525 3150 
L 2975 2775 
Q 2750 2725 2325 2250 
Q 1900 1750 1300 1150 
z
M 3775 3725 
L 4300 3425 
Q 4125 3375 3825 2800 
L 5225 2800 
L 5425 3075 
L 5825 2725 
L 5600 2550 
Q 5550 1125 5500 600 
Q 5450 75 5325 -200 
Q 5200 -475 4725 -625 
Q 4750 -300 3950 -50 
L 3950 50 
Q 4625 -50 4812 -50 
Q 5000 -50 5087 250 
Q 5175 550 5250 2650 
L 3750 2650 
Q 3300 1950 2775 1475 
L 2725 1550 
Q 3075 1975 3375 2600 
Q 3675 3225 3775 3725 
z
M 3425 1850 
L 3500 1900 
Q 4075 1550 4212 1400 
Q 4350 1250 4350 1150 
Q 4350 1050 4250 887 
Q 4150 725 4100 725 
Q 4025 725 3975 950 
Q 3850 1300 3425 1850 
z
M 2100 3700 
L 2100 4275 
L 1150 4275 
Q 825 4275 550 4200 
L 325 4425 
L 2100 4425 
Q 2100 4825 2075 5200 
L 2700 4950 
L 2475 4775 
L 2475 4425 
L 3800 4425 
Q 3800 4825 3775 5200 
L 4400 4950 
L 4175 4775 
L 4175 4425 
L 5125 4425 
L 5575 4825 
L 6100 4275 
L 4175 4275 
L 4175 3925 
L 3800 3750 
L 3800 4275 
L 2475 4275 
L 2475 3875 
L 2100 3700 
z
" transform="scale(0.015625)"/>
       <path id="SimSun-6750" d="M 3750 75 
Q 4325 -25 4537 -12 
Q 4750 0 4750 225 
L 4750 2800 
Q 3975 1375 2600 525 
L 2525 600 
Q 3875 1625 4675 3550 
L 3650 3550 
L 3425 3500 
L 3225 3700 
L 4750 3700 
Q 4750 4500 4725 5250 
L 5350 4975 
L 5125 4800 
L 5125 3700 
L 5425 3700 
L 5725 4000 
L 6175 3550 
L 5125 3550 
L 5125 -25 
Q 5125 -400 4575 -625 
Q 4575 -300 3750 -50 
L 3750 75 
z
M 1950 2925 
Q 1950 0 1975 -500 
L 1550 -675 
Q 1575 500 1575 2375 
Q 1200 1450 325 550 
L 250 625 
Q 1125 1750 1575 3525 
L 675 3525 
L 450 3475 
L 250 3675 
L 1575 3675 
Q 1575 4500 1550 5250 
L 2175 4950 
L 1950 4750 
L 1950 3675 
L 2375 3675 
L 2675 3975 
L 3125 3525 
L 1950 3525 
L 1950 3050 
Q 2575 2725 2762 2550 
Q 2950 2375 2950 2200 
Q 2950 2125 2887 1962 
Q 2825 1800 2775 1800 
Q 2675 1800 2550 2100 
Q 2350 2550 1950 2925 
z
" transform="scale(0.015625)"/>
      </defs>
      <use xlink:href="#SimSun-836f"/>
      <use xlink:href="#SimSun-6750" x="100"/>
     </g>
    </g>
    <g id="patch_13">
     <path d="M 33.2 41.922656 
L 53.2 41.922656 
L 53.2 34.922656 
L 33.2 34.922656 
z
" style="fill: #3498db; stroke: #3498db; stroke-linejoin: miter"/>
    </g>
    <g id="text_40">
     <!-- 功效 -->
     <g transform="translate(61.2 41.922656) scale(0.1 -0.1)">
      <defs>
       <path id="SimSun-529f" d="M 4000 3475 
Q 4025 4675 3975 5250 
L 4575 4975 
L 4350 4775 
Q 4350 4000 4325 3475 
L 5375 3475 
L 5600 3725 
L 5975 3400 
L 5775 3250 
Q 5675 1350 5625 687 
Q 5575 25 5387 -225 
Q 5200 -475 4825 -600 
Q 4800 -250 3875 50 
L 3900 175 
Q 4750 25 4962 25 
Q 5175 25 5250 550 
Q 5325 1075 5425 3325 
L 4325 3325 
Q 4250 2300 4037 1625 
Q 3825 950 3325 412 
Q 2825 -125 1825 -600 
L 1750 -525 
Q 2575 -50 3025 462 
Q 3475 975 3700 1612 
Q 3925 2250 4000 3325 
L 3325 3325 
L 3025 3275 
L 2825 3475 
L 4000 3475 
z
M 1950 1275 
Q 2650 1450 3175 1625 
L 3225 1525 
Q 2125 1125 1462 850 
Q 800 575 700 425 
L 350 900 
Q 725 950 1625 1200 
L 1625 4000 
L 1250 4000 
Q 925 4000 650 3925 
L 425 4150 
L 2500 4150 
L 2775 4425 
L 3200 4000 
L 1950 4000 
L 1950 1275 
z
" transform="scale(0.015625)"/>
       <path id="SimSun-6548" d="M 575 4025 
L 1975 4025 
Q 1950 4250 1837 4500 
Q 1725 4750 1450 5100 
L 1525 5150 
Q 2000 4875 2175 4687 
Q 2350 4500 2350 4350 
Q 2350 4200 2200 4025 
L 2850 4025 
L 3150 4325 
L 3600 3875 
L 1400 3875 
Q 1075 3875 800 3800 
L 575 4025 
z
M 1425 3675 
L 1900 3350 
L 1675 3250 
Q 950 2225 475 1875 
L 400 1925 
Q 1075 2700 1425 3675 
z
M 2300 3575 
L 2350 3650 
Q 2900 3400 3075 3250 
Q 3250 3100 3250 2950 
Q 3250 2850 3187 2700 
Q 3125 2550 3075 2550 
Q 3000 2550 2900 2775 
Q 2725 3150 2300 3575 
z
M 1250 2225 
Q 1675 1950 2075 1625 
Q 2375 2250 2450 2650 
L 2900 2275 
Q 2725 2225 2300 1425 
Q 2700 1075 2862 862 
Q 3025 650 3025 475 
Q 3025 375 2962 237 
Q 2900 100 2875 100 
Q 2800 100 2700 350 
Q 2525 700 2150 1175 
Q 1425 100 475 -475 
L 425 -400 
Q 1300 300 1950 1400 
Q 1525 1850 1200 2150 
L 1250 2225 
z
M 4050 3500 
L 3950 3250 
Q 4150 2050 4525 1275 
Q 4950 2100 5125 3500 
L 4050 3500 
z
M 4175 5250 
L 4775 4950 
Q 4600 4875 4525 4725 
Q 4450 4575 4100 3650 
L 5375 3650 
L 5675 3950 
L 6125 3500 
L 5475 3500 
Q 5275 1975 4700 950 
Q 5350 0 6100 -125 
L 6100 -225 
Q 5650 -250 5550 -500 
Q 4975 -75 4475 725 
Q 3650 -125 2450 -625 
L 2400 -550 
Q 3650 125 4325 1000 
Q 3925 2025 3850 3050 
Q 3550 2400 3225 2000 
L 3150 2050 
Q 3825 3350 4175 5250 
z
" transform="scale(0.015625)"/>
      </defs>
      <use xlink:href="#SimSun-529f"/>
      <use xlink:href="#SimSun-6548" x="100"/>
     </g>
    </g>
    <g id="patch_14">
     <path d="M 33.2 55.985156 
L 53.2 55.985156 
L 53.2 48.985156 
L 33.2 48.985156 
z
" style="fill: #e74c3c; stroke: #e74c3c; stroke-linejoin: miter"/>
    </g>
    <g id="text_41">
     <!-- 适应症 -->
     <g transform="translate(61.2 55.985156) scale(0.1 -0.1)">
      <defs>
       <path id="SimSun-9002" d="M 2900 2175 
L 2900 925 
L 4925 925 
L 4925 2175 
L 2900 2175 
z
M 3725 4500 
Q 2925 4450 2250 4425 
L 2250 4525 
Q 3400 4625 4125 4787 
Q 4850 4950 5175 5175 
L 5500 4675 
Q 5225 4675 4875 4637 
Q 4525 4600 4075 4550 
L 4075 3425 
L 5300 3425 
L 5650 3775 
L 6075 3275 
L 4075 3275 
L 4075 2325 
L 4875 2325 
L 5025 2575 
L 5450 2275 
L 5250 2100 
Q 5250 1025 5275 525 
L 4925 375 
L 4925 775 
L 2900 775 
L 2900 475 
L 2550 350 
Q 2575 875 2575 1500 
Q 2575 2125 2550 2525 
L 2925 2325 
L 3725 2325 
L 3725 3275 
L 2700 3275 
Q 2350 3275 2075 3200 
L 1850 3425 
L 3725 3425 
L 3725 4500 
z
M 1600 775 
Q 1825 550 2225 287 
Q 2625 25 3725 0 
Q 4825 -25 6150 125 
L 6150 25 
Q 5650 -75 5650 -400 
Q 4600 -400 3825 -375 
Q 3050 -350 2600 -187 
Q 2150 -25 1850 300 
Q 1550 600 1425 600 
Q 1300 600 1025 312 
Q 750 25 650 -200 
L 275 125 
Q 675 450 1275 800 
L 1275 2675 
L 950 2675 
Q 750 2675 475 2600 
L 250 2825 
L 1225 2825 
L 1375 3075 
L 1800 2775 
L 1600 2600 
L 1600 775 
z
M 725 4750 
L 775 4825 
Q 1200 4600 1400 4412 
Q 1600 4225 1600 4050 
Q 1600 3875 1500 3762 
Q 1400 3650 1350 3650 
Q 1250 3650 1175 3925 
Q 1050 4325 725 4750 
z
" transform="scale(0.015625)"/>
       <path id="SimSun-5e94" d="M 1850 3225 
Q 2650 2125 2750 1850 
Q 2850 1575 2850 1400 
Q 2850 1275 2812 1137 
Q 2775 1000 2637 925 
Q 2500 850 2400 1475 
Q 2275 2075 1775 3175 
L 1850 3225 
z
M 3100 3425 
Q 3650 2675 3862 2287 
Q 4075 1900 4037 1637 
Q 4000 1375 3900 1300 
Q 3800 1225 3775 1225 
Q 3625 1225 3575 1725 
Q 3475 2350 3000 3375 
L 3100 3425 
z
M 1175 75 
L 4075 75 
Q 4600 1400 4800 2087 
Q 5000 2775 5125 3450 
L 5700 3100 
Q 5525 3025 5150 2100 
Q 4750 1175 4250 75 
L 5125 75 
L 5550 500 
L 6125 -75 
L 2000 -75 
Q 1675 -75 1400 -150 
L 1175 75 
z
M 975 4475 
L 1350 4225 
L 5075 4225 
L 5475 4625 
L 6025 4075 
L 1350 4075 
Q 1350 3200 1337 2387 
Q 1325 1575 1100 850 
Q 875 125 325 -575 
L 250 -525 
Q 750 375 875 1225 
Q 1000 2075 1000 2850 
Q 1000 3625 975 4475 
z
M 3175 5225 
Q 3725 4925 3787 4812 
Q 3850 4700 3850 4625 
Q 3850 4525 3787 4412 
Q 3725 4300 3612 4250 
Q 3500 4200 3450 4450 
Q 3400 4700 3100 5175 
L 3175 5225 
z
" transform="scale(0.015625)"/>
       <path id="SimSun-75c7" d="M 2600 -75 
Q 2600 1750 2575 2400 
L 3150 2125 
L 2925 1950 
L 2925 -75 
L 3800 -75 
L 3800 3250 
L 2850 3250 
Q 2525 3250 2250 3175 
L 2025 3400 
L 5100 3400 
L 5450 3725 
L 5900 3250 
L 4125 3250 
L 4125 1875 
L 5025 1875 
L 5375 2200 
L 5800 1725 
L 4125 1725 
L 4125 -75 
L 5175 -75 
L 5575 275 
L 6050 -225 
L 2250 -225 
Q 1925 -225 1650 -300 
L 1425 -75 
L 2600 -75 
z
M 1475 2450 
Q 1475 3650 1450 4525 
L 1850 4275 
L 3625 4275 
Q 3625 4725 3225 5150 
L 3275 5200 
Q 3950 4900 3987 4775 
Q 4025 4650 4025 4600 
Q 4025 4425 3850 4275 
L 5225 4275 
L 5600 4625 
L 6075 4125 
L 1825 4125 
Q 1850 2125 1750 1512 
Q 1650 900 1325 375 
Q 1000 -150 375 -575 
L 325 -500 
Q 1450 550 1475 2300 
Q 775 1775 575 1425 
L 250 1825 
Q 600 1950 1475 2450 
z
M 425 3975 
Q 1000 3575 1062 3412 
Q 1125 3250 1125 3150 
Q 1125 3000 1025 2887 
Q 925 2775 875 2775 
Q 800 2775 800 2875 
Q 750 3050 637 3362 
Q 525 3675 375 3925 
L 425 3975 
z
" transform="scale(0.015625)"/>
      </defs>
      <use xlink:href="#SimSun-9002"/>
      <use xlink:href="#SimSun-5e94" x="100"/>
      <use xlink:href="#SimSun-75c7" x="200"/>
     </g>
    </g>
   </g>
  </g>
 </g>
 <defs>
  <clipPath id="pc5c71dda63">
   <rect x="24.2" y="10.774219" width="534.8" height="390.08"/>
  </clipPath>
 </defs>
</svg>
